<svg width="35" height="153" fill="none" xmlns="http://www.w3.org/2000/svg"><path d="M.614.977C13.773 7.97 30.675 44.09 33.24 69.63c2.834 27.596-.461 43.393-15.976 75.431 2.107-.384 3.796-.886 5.373-1.066 1.79-.283 3.683-.564 5.462-.415.525.011 1.446 1.004 1.536 1.654.09.65-.668 1.712-1.197 1.916-5.075 1.828-10.146 3.441-15.323 5.159-1.69.501-2.932-.175-3.415-2.021-1.518-7.053-3.14-14.108-4.55-21.266-.278-1.625.185-3.558.234-5.717 4.468 1.829 3.856 5.702 4.945 8.534 1.191 2.942 1.854 6.089 3.026 9.894 6.073-8.823 9.947-17.805 12.472-27.356 9.393-34.985 3.002-67.52-15.396-97.845-2.427-3.943-5.28-7.57-7.815-11.407C2.12 3.926 1.62 2.835.614.977Z" fill="url('#paint0_linear_1_2537')"/><defs><linearGradient id="paint0_linear_1_2537" x1="34.377" y1="77.36" x2="-1.103" y2="76.554" gradientUnits="userSpaceOnUse"><stop stop-color="#F0FBB9"/><stop offset=".29" stop-color="#FBB3A0"/><stop offset=".532" stop-color="#BFA2FD"/><stop offset=".749" stop-color="#A4D0FC"/><stop offset=".876" stop-color="#9FE9E2"/><stop offset="1" stop-color="#9FFACE"/></linearGradient></defs></svg>