<svg width="25" height="72" fill="none" xmlns="http://www.w3.org/2000/svg"><path d="M.888.394c9.179 3.33 21.108 20.261 23.023 32.184 2.112 12.883-.095 20.232-10.707 35.091 1.461-.168 2.632-.393 3.727-.469 1.242-.122 2.556-.243 3.793-.165.364.008 1.01.476 1.075.78.066.303-.455.794-.822.887-3.516.826-7.03 1.551-10.618 2.326-1.17.225-2.038-.097-2.382-.96-1.091-3.297-2.255-6.595-3.272-9.94-.201-.76.11-1.659.133-2.665 3.114.876 2.708 2.679 3.48 4.005.843 1.378 1.32 2.849 2.153 4.63 4.173-4.084 6.818-8.252 8.522-12.693C25.338 37.14 20.728 21.935 7.79 7.7 6.084 5.848 4.082 4.14 2.302 2.339 1.95 1.777 1.597 1.266.888.394Z" fill="url('#paint0_linear_225_2398')"/><defs><linearGradient id="paint0_linear_225_2398" x1="24.74" y1="36.188" x2=".088" y2="35.628" gradientUnits="userSpaceOnUse"><stop stop-color="#F0FBB9"/><stop offset=".29" stop-color="#FBB3A0"/><stop offset=".532" stop-color="#BFA2FD"/><stop offset=".749" stop-color="#A4D0FC"/><stop offset=".876" stop-color="#9FE9E2"/><stop offset="1" stop-color="#9FFACE"/></linearGradient></defs></svg>