<svg width="51" height="50" fill="none" xmlns="http://www.w3.org/2000/svg"><g clip-path="url('#clip0_1_166')"><path d="M18.098 2.282c.991.613 1.983 1.227 3.157 1.96-.443.22-.737.384-1.084.5C13.018 7.39 8.975 13.49 9.255 21.17c.21 4.934 2.175 9.164 5.059 13.128 3.237 4.428 7.648 7.191 12.737 8.943 2.621.897 5.295.884 7.972.443.7-.13 1.373-.285 2.11-.67-.408-.084-.846-.242-1.22-.15-9.236 1.906-20.18-5.6-23.843-15.685-1.445-3.949-1.58-7.953-.251-11.92 1.57-4.656 6.163-8.484 10.976-9.092-.596 1.615-2.403 2.75-1.91 4.924 1.473-1.727 2.83-3.273 4.137-4.816.426-.523.519-1.157-.077-1.46a127.085 127.085 0 0 0-6.116-3.02c-.13-.07-.397.119-.596.177-.074.029-.117.182-.135.309Z" fill="#212020"/></g><defs><clipPath id="clip0_1_166"><path fill="#fff" transform="scale(1 -1) rotate(-42.272 -28.38 -11.046)" d="M0 0h41.601v29.468H0z"/></clipPath></defs></svg>