<svg width="1377" height="1364" fill="none" xmlns="http://www.w3.org/2000/svg"><g opacity=".11" stroke="#18181B" stroke-linecap="round" stroke-linejoin="round"><path d="m1082.06 271.377-14 7.947M1103.2 295.876l-15.38 7.632M1121.9 324.164l-16.78 7.075M1137.65 356.178l-18.18 6.279M1149.86 391.691l-19.5 5.183M1158.06 430.268l-20.68 3.801" stroke-width=".012"/><path d="m1161.8 471.429-21.65 2.118M1160.8 514.47l-22.39.196M1154.85 558.622l-22.81-1.893M1143.93 603.028l-22.85-4.131" stroke-width=".024"/><path d="m1128.18 646.848-22.55-6.399M1107.87 689.241l-21.89-8.593M1083.43 729.5l-20.88-10.681M1055.34 766.983l-19.59-12.559M1024.12 801.248l-18.09-14.181M990.334 831.939l-16.389-15.488" stroke-width=".037"/><path d="m954.537 858.889-14.602-16.51M917.207 882.009l-12.709-17.186M878.796 901.342l-10.861-17.591M839.707 917.011l-9.014-17.712M800.214 929.164l-7.241-17.576M760.553 938.012l-5.528-17.246" stroke-width=".024"/><path d="m720.877 943.721-3.875-16.72M681.356 946.485l-2.344-16.029M642.055 946.485l-.916-15.232M603.04 943.901l.436-14.316M564.342 938.839l1.698-13.325M525.994 931.402l2.87-12.243M487.968 921.638l3.936-11.132M450.295 909.544l4.927-9.96M412.948 895.078l5.843-8.773M376.037 878.238l6.64-7.556M339.581 858.964l7.391-6.325M303.706 837.167l8.022-5.078M268.507 812.771l8.563-3.831M234.168 785.685l9.013-2.539M200.847 755.881l9.358-1.262" stroke-width=".012"/><path d="m168.759 723.251 9.615.03M138.173 687.783l9.734 1.322M109.315 649.506l9.764 2.599M82.457 608.435l9.66 3.86M57.877 564.645l9.434 5.108" stroke-width=".024"/><path d="m35.811 518.301 9.089 6.279" stroke-width=".037"/><path d="m16.49 469.538 8.623 7.421M.104 418.551l8.052 8.518" stroke-width=".049"/><path d="m1087.81 303.509-15.03 8.563M1105.12 331.241l-16.48 8.082M1119.47 362.457l-17.92 7.346M1130.36 396.872l-19.3 6.325M1137.38 434.068l-20.54 4.987M1140.15 473.546l-21.6 3.365" stroke-width=".012"/><path d="m1138.41 514.665-22.39 1.502M1132.04 556.729l-22.91-.586M1121.07 598.897l-23.09-2.81M1105.63 640.447l-22.92-5.093M1085.98 680.648l-22.4-7.361M1062.55 718.82l-21.56-9.524M1035.75 754.423l-20.4-11.522M1006.04 787.068l-19.022-13.265M973.945 816.451l-17.456-14.767M939.936 842.38l-15.744-15.954M904.5 864.823l-13.971-16.87M867.934 883.751l-12.138-17.472M830.69 899.3l-10.32-17.802M792.971 911.588l-8.533-17.891M755.026 920.766l-6.79-17.756" stroke-width=".024"/><path d="m717.004 927.001-5.153-17.426M679.01 930.456l-3.56-16.93M641.137 931.253l-2.058-16.27M603.476 929.585l-.631-15.488M566.04 925.513l.721-14.572M528.861 919.16l1.968-13.596M491.906 910.506l3.17-12.498M455.22 899.585l4.251-11.372M418.791 886.305l5.258-10.17M382.678 870.682l6.19-8.938M346.969 852.64l7-7.676M311.729 832.089l7.737-6.339M277.069 808.94l8.383-5.002M243.179 783.145l8.908-3.635" stroke-width=".012"/><path d="m210.205 754.62 9.344-2.239M178.371 723.282l9.644-.841M147.906 689.105l9.839.571M119.082 652.106l9.869 1.983M92.113 612.296l9.779 3.38" stroke-width=".024"/><path d="m67.312 569.752 9.554 4.762M44.9 524.58l9.194 6.084" stroke-width=".037"/><path d="m25.113 476.958 8.728 7.331M8.152 427.068l8.112 8.517" stroke-width=".049"/><path d="m1072.78 312.071-14.65 9.419M1088.64 339.323l-16.12 8.998M1101.55 369.804l-17.6 8.292M1111.06 403.197l-18.98 7.301M1116.84 439.057l-20.28 6.009M1118.55 476.913l-21.39 4.431M1116.01 516.167l-22.26 2.614" stroke-width=".012"/><path d="m1109.13 556.143-22.86.556M1097.98 596.086l-23.1-1.652M1082.71 635.356l-23.04-3.936M1063.59 673.287l-22.66-6.204M1040.99 709.296l-21.93-8.428M1015.35 742.901l-20.941-10.47M987.013 773.802l-19.694-12.349M956.489 801.684l-18.238-13.971M924.191 826.426l-16.675-15.338M890.528 847.953l-14.977-16.405M855.793 866.28l-13.205-17.215M820.371 881.498l-11.417-17.742M784.44 893.696l-9.629-18.012" stroke-width=".024"/><path d="m748.234 903.01-7.886-18.042M711.851 909.575l-6.174-17.877M675.449 913.525l-4.552-17.531M639.08 914.983l-2.989-17.005M602.846 914.097l-1.502-16.33M566.761 910.942l-.075-15.533M530.831 905.564l1.262-14.617M495.075 898.007l2.524-13.595M459.471 888.213l3.711-12.469M424.049 876.134l4.792-11.296M388.866 861.743l5.783-10.065M353.969 844.963l6.7-8.743M319.462 825.749l7.511-7.406M285.453 803.937l8.218-6.009M252.088 779.51l8.818-4.597" stroke-width=".012"/><path d="m219.55 752.379 9.299-3.124M188.016 722.442l9.66-1.638M157.747 689.676l9.885-.151M128.949 654.089l9.975 1.352M101.892 615.675l9.93 2.854" stroke-width=".024"/><path d="m76.865 574.515 9.72 4.311" stroke-width=".037"/><path d="m54.092 530.665 9.374 5.738M33.845 484.288l8.863 7.121" stroke-width=".049"/><path d="m16.269 435.587 8.262 8.412" stroke-width=".061"/><path d="m1058.13 321.491-14.26 10.201M1072.52 348.32l-15.74 9.779M1083.95 378.094l-17.2 9.089M1092.08 410.498l-18.64 8.142M1096.56 445.064l-19.95 6.926M1097.16 481.344l-21.08 5.393M1093.75 518.781l-21.99 3.576M1086.27 556.698l-22.63 1.547" stroke-width=".012"/><path d="m1074.88 594.435-22.97-.631M1059.66 631.419l-22.98-2.885M1040.93 667.083l-22.7-5.153M1019.06 700.868l-22.102-7.361M994.405 732.431l-21.227-9.464M967.322 761.455l-20.1-11.402M938.254 787.713l-18.808-13.129M907.518 811.088l-17.321-14.602M875.552 831.548 859.823 815.7M842.591 849.064l-14.046-16.81M808.956 863.756l-12.303-17.516" stroke-width=".024"/><path d="m774.808 875.685-10.531-17.952M740.347 884.968l-8.788-18.162M705.675 891.698l-7.075-18.147M670.897 895.994l-5.408-17.921M636.091 897.977l-3.801-17.531M601.346 897.767l-2.238-16.975M566.689 895.409l-.766-16.269M532.091 890.947l.646-15.413M497.601 884.413l1.983-14.452M463.182 875.744l3.229-13.37M428.842 864.839l4.402-12.229M394.651 851.679l5.468-10.966M360.67 836.22l6.445-9.659M326.977 818.344l7.316-8.293M293.673 797.928l8.082-6.865" stroke-width=".012"/><path d="m260.906 774.913 8.729-5.393M228.847 749.255l9.254-3.891M197.677 720.803l9.659-2.359M167.632 689.527l9.93-.811M138.924 655.44l10.05.751M111.823 618.53l10.02 2.329" stroke-width=".024"/><path d="m86.587 578.826 9.855 3.876" stroke-width=".037"/><path d="m63.468 536.404 9.539 5.378M42.705 491.408l9.058 6.821" stroke-width=".049"/><path d="m24.53 443.997 8.412 8.218" stroke-width=".061"/><path d="m1043.88 331.69-13.86 10.876M1056.78 358.1l-15.34 10.456M1066.75 387.183l-16.81 9.825M1073.44 418.64l-18.24 8.908M1076.61 451.99l-19.54 7.677M1076.08 486.737l-20.7 6.159M1071.76 522.357l-21.64 4.402M1063.64 558.245l-22.29 2.434M1051.91 593.804l-22.68.301M1036.68 628.534l-22.79-1.908" stroke-width=".012"/><path d="m1018.23 661.929-22.589-4.161M996.962 693.507l-22.098-6.385M973.181 722.966l-21.347-8.518M947.222 750.052l-20.37-10.501M919.442 774.584l-19.153-12.273M890.196 796.485 872.41 782.62" stroke-width=".024"/><path d="m859.821 815.699-16.269-15.203M828.542 832.255l-14.662-16.299M796.653 846.24l-12.995-17.156M764.278 857.732l-11.282-17.772M731.557 866.806l-9.569-18.132M698.601 873.551l-7.857-18.283M665.49 878.073l-6.159-18.222M632.289 880.446l-4.522-17.951M599.107 880.792l-2.945-17.531M565.92 879.139l-1.412-16.915M532.735 875.534l.06-16.149M499.583 869.961l1.457-15.248M466.415 862.375l2.779-14.242M433.242 852.609l3.996-13.099M400.119 840.712l5.138-11.883M367.116 826.56l6.175-10.575M334.291 810.051l7.105-9.178M301.753 791.063l7.932-7.737" stroke-width=".012"/><path d="m269.633 769.52 8.638-6.219M238.105 745.365l9.224-4.672M207.337 718.446l9.674-3.08M177.564 688.715l9.975-1.473M148.975 656.192l10.14.15" stroke-width=".024"/><path d="m121.843 620.859 10.155 1.772M96.439 582.702l10.005 3.395" stroke-width=".037"/><path d="m73.007 541.782 9.689 4.987M51.763 498.229l9.223 6.534" stroke-width=".049"/><path d="m32.942 452.216 8.608 8.022" stroke-width=".061"/><path d="m1041.44 368.556-14.91 11.132M1049.95 397.009l-16.42 10.486M1055.2 427.548l-17.83 9.554M1057.06 459.666l-19.13 8.337M1055.38 492.896l-20.28 6.865M1050.12 526.757l-21.21 5.123M1041.35 560.68l-21.9 3.185M1029.23 594.105l-22.31 1.081M1013.89 626.628l-22.459-1.112M995.64 657.769l-22.323-3.32M974.863 687.122l-21.933-5.498M951.831 714.449l-21.256-7.616M926.849 739.55l-20.371-9.599M900.289 762.31l-19.288-11.448M872.408 782.619l-18.042-13.084M843.552 800.496l-16.615-14.526M813.883 815.956l-15.098-15.729M783.656 829.085l-13.505-16.705M752.997 839.96l-11.867-17.456M721.988 848.673l-10.186-17.981M690.742 855.269l-8.517-18.282M659.334 859.85l-6.881-18.372M627.771 862.495l-5.213-18.252M596.16 863.26l-3.605-17.951M564.511 862.223l-2.043-17.471M532.795 859.384l-.526-16.825M501.042 854.713l.916-16.029M469.193 848.133l2.299-15.067M437.238 839.51l3.575-14.001M405.257 828.83l4.777-12.814M373.29 815.986l5.874-11.508M341.399 800.872l6.88-10.125" stroke-width=".012"/><path d="m309.686 783.327 7.751-8.683M278.27 763.302l8.518-7.15M247.326 740.692l9.164-5.544M217.012 715.365l9.66-3.921M187.536 687.242l10.005-2.254M159.113 656.341l10.23-.555" stroke-width=".024"/><path d="m131.999 622.632 10.275 1.142" stroke-width=".037"/><path d="m106.445 586.098 10.14 2.854M82.694 546.768l9.87 4.507M60.987 504.765l9.434 6.129" stroke-width=".049"/><path d="m41.551 460.238 8.818 7.706" stroke-width=".073"/><path d="M1026.53 379.688 1012 391.375M1033.52 407.494l-15.98 11.027M1037.37 437.103l-17.38 10.08M1037.93 468.005l-18.69 8.878M1035.1 499.762l-19.8 7.406M1028.91 531.881l-20.71 5.678M1019.45 563.864l-21.392 3.756M1006.92 595.186l-21.827 1.698M991.43 625.516l-21.993-.421M973.315 654.45l-21.917-2.584M952.927 681.625l-21.572-4.747M930.578 706.833l-21.001-6.835M906.48 729.952l-20.19-8.818M881.002 750.863l-19.199-10.666M854.366 769.536l-18.042-12.348M826.937 785.97l-16.735-13.835M798.786 800.227 783.479 785.1M770.151 812.38l-13.791-16.195M741.131 822.505l-12.213-17.051M711.803 830.692l-10.651-17.711M682.226 836.987l-9.044-18.148M652.451 841.478l-7.406-18.387M622.556 844.243l-5.768-18.418M592.556 845.309l-4.146-18.238M562.469 844.753l-2.569-17.892M532.271 842.56l-1.021-17.351M501.954 838.685l.466-16.63M471.493 833.066l1.878-15.759M440.814 825.509l3.215-14.722M410.033 816.015l4.461-13.58M379.164 804.478l5.618-12.318" stroke-width=".012"/><path d="m348.276 790.748 6.655-10.966M317.435 774.643l7.601-9.48M286.791 756.152l8.413-7.947M256.489 735.15l9.104-6.324M226.668 711.443l9.645-4.642M197.541 684.991l10.05-2.93" stroke-width=".024"/><path d="m169.343 655.786 10.29-1.202M142.275 623.774l10.381.57" stroke-width=".037"/><path d="m116.585 588.95 10.29 2.344M92.564 551.274l10.035 4.071" stroke-width=".049"/><path d="m70.424 510.893 9.6 5.769" stroke-width=".061"/><path d="m50.367 467.944 9.029 7.407" stroke-width=".073"/><path d="m1012 391.374-14.11 12.168M1017.54 418.52l-15.56 11.477M1019.99 447.184l-16.95 10.516M1019.24 476.882l-18.18 9.299M1015.3 507.168l-19.286 7.797M1008.2 537.559l-20.176 6.1M998.058 567.62l-20.836 4.221M985.091 596.883l-21.272 2.223M969.441 625.095l-21.452.121M951.399 651.865l-21.392-1.998M931.357 676.877l-21.077-4.101M909.575 699.996l-20.536-6.159M886.289 721.133l-19.8-8.112M861.806 740.198l-18.868-9.945M836.323 757.189l-17.786-11.628M810.201 772.135l-16.554-13.145M783.479 785.1l-15.233-14.467M756.362 796.185l-13.836-15.608M728.913 805.454l-12.348-16.555M701.153 812.98l-10.817-17.305M673.18 818.839l-9.283-17.876M645.045 823.09l-7.722-18.222M616.789 825.824l-6.129-18.387M588.408 827.071l-4.522-18.327M559.897 826.861l-2.944-18.087M531.252 825.209l-1.412-17.667M502.421 822.055l.09-17.066M473.367 817.308l1.518-16.3M444.028 810.787l2.899-15.383M414.495 802.436l4.176-14.287M384.783 792.16l5.363-13.099" stroke-width=".012"/><path d="m354.93 779.78 6.475-11.747M325.039 765.164l7.451-10.305M295.202 748.204l8.307-8.773M265.595 728.824l9.028-7.135M236.315 706.801l9.63-5.438M207.59 682.061l10.08-3.696" stroke-width=".024"/><path d="M179.635 654.583 190 652.69M152.653 624.344l10.471-.075" stroke-width=".037"/><path d="m126.874 591.296 10.44 1.742M102.602 555.345l10.215 3.545" stroke-width=".049"/><path d="m80.023 516.664 9.825 5.318" stroke-width=".061"/><path d="m59.394 475.351 9.24 7.045" stroke-width=".073"/><path d="m1001.98 429.997-15.098 11.732M1003.04 457.7l-16.433 10.741M1001.06 486.182l-17.665 9.494M996.015 514.965l-18.703 8.022M988.022 543.659l-19.559 6.324M977.223 571.84l-20.19 4.477M963.823 599.106l-20.581 2.493M947.986 625.216l-20.746.465M930.006 649.866l-20.671-1.593M910.281 672.778l-20.4-3.636M889.038 693.837l-19.89-5.633M866.492 713.021l-19.199-7.556M842.937 730.252l-18.328-9.344M818.54 745.561l-17.321-10.996M793.649 758.99l-16.195-12.499M768.243 770.632l-14.962-13.851M742.525 780.578l-13.626-15.023M716.566 788.899l-12.243-16.014M690.339 795.674l-10.832-16.825M663.9 800.963l-9.359-17.487M637.326 804.868l-7.857-17.952M610.661 807.437l-6.34-18.222M583.89 808.744l-4.792-18.297M556.956 808.774l-3.245-18.177M529.839 807.543l-1.712-17.892M502.511 804.989l-.225-17.396M474.888 801.009l1.232-16.75M446.928 795.404l2.599-15.908M418.672 788.148l3.921-14.917" stroke-width=".012"/><path d="m390.146 779.059 5.152-13.775M361.408 768.033l6.264-12.499M332.486 754.86l7.286-11.087M303.511 739.432l8.202-9.539M274.623 721.69l8.983-7.917M245.943 701.364l9.614-6.189M217.672 678.365l10.11-4.417" stroke-width=".024"/><path d="m189.999 652.691 10.426-2.584" stroke-width=".037"/><path d="m163.126 624.268 10.591-.706M137.317 593.038l10.576 1.157" stroke-width=".049"/><path d="m112.813 558.892 10.38 3.019" stroke-width=".061"/><path d="m89.844 521.98 10.02 4.852M68.632 482.394l9.465 6.655" stroke-width=".073"/><path d="m986.878 441.729-14.661 11.808M986.609 468.439l-15.938 10.772M983.394 495.677l-17.096 9.509M977.309 522.987l-18.087 8.037M968.461 549.984l-18.868 6.354M957.032 576.317l-19.454 4.537M943.243 601.6l-19.815 2.614M927.243 625.682l-19.965.646M909.335 648.275l-19.905-1.352M889.879 669.142l-19.619-3.335M869.15 688.205l-19.139-5.243M847.291 705.464l-18.493-7.09M824.61 720.909l-17.696-8.833M801.218 734.564l-16.75-10.455M777.452 746.492l-15.699-11.927M753.281 756.783l-14.527-13.25M728.899 765.554l-13.265-14.437M704.325 772.886l-11.958-15.458M679.505 778.849 668.9 762.52M654.537 783.477l-9.239-17.021M629.468 786.918l-7.797-17.561M604.321 789.216l-6.324-17.922M579.098 790.446l-4.852-18.102M553.707 790.597l-3.335-18.087M528.123 789.652l-1.847-17.892M502.285 787.592l-.391-17.531M476.117 784.258l1.036-16.961M449.526 779.497l2.419-16.239M422.592 773.232l3.726-15.352" stroke-width=".012"/><path d="m395.296 765.283 4.958-14.286M367.672 755.536l6.099-13.084M339.772 743.771l7.166-11.732M311.714 729.891l8.112-10.245M283.604 713.774l8.908-8.638M255.556 695.176l9.599-6.956" stroke-width=".024"/><path d="m227.784 673.949 10.11-5.153M200.426 650.107l10.486-3.29" stroke-width=".037"/><path d="m173.714 623.563 10.696-1.397M147.894 594.194l10.726.54" stroke-width=".049"/><path d="m123.197 561.91 10.56 2.464" stroke-width=".061"/><path d="m99.867 526.834 10.215 4.357" stroke-width=".073"/><path d="m78.096 489.051 9.704 6.204" stroke-width=".085"/><path d="m970.672 479.21-15.443 10.666M966.298 505.186l-16.509 9.374M959.223 531.025l-17.441 7.887M949.596 556.337l-18.162 6.235M937.576 580.854l-18.703 4.447M923.427 604.215l-19.034 2.584M907.278 626.328l-19.169.691M889.432 646.924l-19.063-1.217M870.26 665.807l-18.793-3.11M850.011 682.963l-18.342-4.973M828.801 698.376l-17.711-6.746M806.914 712.075l-16.945-8.412M784.469 724.108l-16.059-9.96M761.754 734.564l-15.067-11.417M738.757 743.532l-13.986-12.724M715.634 751.118l-12.829-13.896M692.367 757.427l-11.597-14.918M668.903 762.521l-10.321-15.804M645.299 766.455l-9.013-16.539M621.672 769.356l-7.662-17.141M597.996 771.294l-6.279-17.591M574.244 772.346l-4.852-17.862M550.376 772.51l-3.395-17.952M526.278 771.759l-1.938-17.847M501.896 770.063l-.496-17.562M477.156 767.298l.901-17.125M451.949 763.256l2.283-16.464" stroke-width=".012"/><path d="m426.317 757.879 3.605-15.653M400.256 750.998l4.837-14.662M373.77 742.449l6.009-13.52M346.937 732.039l7.076-12.213M319.826 719.646l8.022-10.756M292.512 705.135l8.863-9.193M265.16 688.219l9.569-7.496" stroke-width=".024"/><path d="m237.89 668.795 10.141-5.709" stroke-width=".037"/><path d="m210.912 646.818 10.53-3.846M184.41 622.166l10.771-1.923M158.619 594.734l10.801.06" stroke-width=".049"/><path d="m133.755 564.376 10.696 2.043" stroke-width=".061"/><path d="m110.083 531.189 10.381 4.011" stroke-width=".073"/><path d="m87.802 495.256 9.885 5.934" stroke-width=".085"/><path d="m955.229 489.878-14.917 10.365M949.789 514.559l-15.954 9.059M941.782 538.912l-16.78 7.557M931.434 562.571l-17.456 5.919M918.875 585.3l-17.907 4.176M904.394 606.798l-18.192 2.389M888.11 627.018l-18.252.556M870.366 645.705l-18.162-1.277M851.468 662.696l-17.862-3.094M831.671 677.989l-17.396-4.867M811.086 691.629l-16.795-6.535M789.967 703.663l-16.074-8.127M768.406 714.147l-15.248-9.614M746.687 723.146l-14.301-10.981M724.77 730.808l-13.294-12.243M702.806 737.222l-12.198-13.385M680.769 742.511l-11.026-14.392M658.579 746.717l-9.855-15.293M636.288 749.916l-8.608-16.044M614.011 752.215l-7.361-16.675M591.715 753.703l-6.039-17.156M569.39 754.483l-4.672-17.486M546.978 754.559l-3.305-17.651M524.341 753.911l-1.878-17.621M501.401 752.5l-.481-17.426M478.054 750.173l.916-17.036M454.228 746.791l2.268-16.494" stroke-width=".012"/><path d="m429.924 742.224 3.56-15.744M405.092 736.336l4.808-14.842M379.78 728.93l5.964-13.761M354.014 719.827l7.016-12.514M327.849 708.89l7.991-11.132M301.375 695.94l8.848-9.599" stroke-width=".024"/><path d="m274.729 680.723 9.569-7.962M248.031 663.086l10.141-6.205" stroke-width=".037"/><path d="m221.445 642.972 10.59-4.357M195.183 620.242l10.846-2.418" stroke-width=".049"/><path d="m169.418 594.795 10.936-.421" stroke-width=".061"/><path d="m144.453 566.418 10.832 1.563M120.463 535.202l10.545 3.56" stroke-width=".073"/><path d="m97.686 501.189 10.065 5.513" stroke-width=".085"/><path d="m933.837 523.619-15.323 8.503M925.003 546.468l-16.089 7M913.977 568.49l-16.644 5.378M900.967 589.476l-17.035 3.681M886.202 609.187l-17.215 1.938M869.856 627.573l-17.245.195M852.203 644.429l-17.081-1.563M833.608 659.603l-16.765-3.26M814.272 673.122l-16.314-4.912M794.293 685.095l-15.714-6.489M773.89 695.536l-15.022-7.976M753.161 704.534l-14.226-9.359M732.384 712.165l-13.385-10.651M711.472 718.565l-12.439-11.853M690.608 723.837l-11.417-12.919M669.744 728.119l-10.351-13.911M648.726 731.424l-9.208-14.767M627.68 733.871l-8.052-15.518M606.648 735.54l-6.851-16.149M585.678 736.546l-5.618-16.645M564.718 736.999l-4.356-17.036M543.672 736.907l-3.035-17.261M522.462 736.29 520.764 719M500.92 735.074l-.315-17.156M478.972 733.136l1.022-16.84M456.498 730.297l2.344-16.33" stroke-width=".012"/><path d="m433.483 726.481 3.606-15.669M409.898 721.495l4.822-14.843M385.744 715.169l5.964-13.82M361.031 707.313l7.03-12.664M335.836 697.758l7.992-11.342M310.223 686.342l8.848-9.885" stroke-width=".024"/><path d="m284.298 672.761 9.57-8.307" stroke-width=".037"/><path d="m258.171 656.883 10.171-6.61M232.032 638.614l10.606-4.762M206.028 617.825l10.906-2.854" stroke-width=".049"/><path d="m180.358 594.374 11.026-.887" stroke-width=".061"/><path d="m155.282 567.98 10.951 1.127" stroke-width=".073"/><path d="m131.006 538.761 10.696 3.155" stroke-width=".085"/><path d="m107.751 506.702 10.276 5.168" stroke-width=".098"/><path d="m908.912 553.468-15.383 6.324M897.333 573.868l-15.848 4.732M883.934 593.158l-16.149 3.08M868.986 611.124l-16.284 1.427M852.612 627.77l-16.255-.24M835.122 642.867l-16.074-1.877M816.844 656.342l-15.729-3.5M797.96 668.21l-15.263-5.032M778.581 678.605l-14.692-6.505M758.871 687.558l-14.001-7.902M738.934 695.175l-13.264-9.194M719.003 701.515l-12.424-10.411M699.038 706.711l-11.507-11.507M679.193 710.917l-10.531-12.543M659.391 714.208l-9.509-13.46M639.518 716.658l-8.443-14.271M619.625 718.355l-7.331-14.993M599.799 719.391l-6.19-15.594M580.06 719.901l-5.033-16.104M560.364 719.962l-3.846-16.479M540.639 719.646l-2.614-16.735M520.765 719.001l-1.337-16.84M500.603 717.918l-.045-16.735M479.992 716.295l1.247-16.48M458.842 713.968l2.508-16.044" stroke-width=".012"/><path d="m437.091 710.812 3.756-15.428M414.72 706.652l4.912-14.647M391.706 701.348l6.039-13.745M368.061 694.649l7.075-12.633M343.828 686.416l8.022-11.372" stroke-width=".024"/><path d="m319.071 676.456 8.863-10.005M293.867 664.455l9.584-8.472" stroke-width=".037"/><path d="m268.341 650.273 10.185-6.82M242.638 633.854l10.651-5.063" stroke-width=".049"/><path d="m216.936 614.969 10.952-3.185" stroke-width=".061"/><path d="m191.381 593.487 11.086-1.201M166.236 569.108l11.056.826" stroke-width=".073"/><path d="m141.704 541.916 10.831 2.855" stroke-width=".085"/><path d="m118.026 511.871 10.411 4.882" stroke-width=".098"/><path d="m867.785 596.236-15.338 2.419M852.703 612.551l-15.398.841M836.357 627.528l-15.323-.736M819.05 640.989l-15.053-2.314M801.113 652.841l-14.692-3.815M782.695 663.177l-14.196-5.257M763.888 672.1l-13.595-6.639M744.87 679.657l-12.934-7.932M725.669 685.98l-12.168-9.134M706.579 691.105l-11.342-10.245M687.527 695.206l-10.456-11.282M668.658 698.374l-9.524-12.213M649.88 700.749l-8.533-13.055M631.073 702.387l-7.511-13.806M612.295 703.362l-6.46-14.452M593.608 703.798l-5.393-15.022M575.023 703.798l-4.297-15.489M556.519 703.482l-3.185-15.879M538.024 702.91l-2.058-16.134M519.429 702.161l-.886-16.269M500.561 701.184l.316-16.239M481.239 699.816l1.533-16.044M461.35 697.924l2.75-15.668" stroke-width=".012"/><path d="m440.843 695.385 3.921-15.143M419.631 692.005l5.048-14.466M397.744 687.604l6.114-13.596M375.138 682.014l7.121-12.574M351.853 675.045l8.052-11.387" stroke-width=".024"/><path d="m327.938 666.453 8.878-10.095" stroke-width=".037"/><path d="m303.449 655.982 9.615-8.653M278.529 643.453l10.215-7.061M253.291 628.791l10.696-5.318" stroke-width=".049"/><path d="m227.887 611.785 11.012-3.485" stroke-width=".061"/><path d="m202.47 592.287 11.177-1.532" stroke-width=".073"/><path d="m177.291 569.932 11.147.496M152.532 544.771l10.967 2.554" stroke-width=".085"/><path d="m128.44 516.753 10.576 4.582" stroke-width=".11"/><path d="m837.304 613.392-14.437.09M821.035 626.793l-14.272-1.412M803.996 638.675l-13.97-2.869M786.42 649.025l-13.55-4.296M768.498 657.92l-13.025-5.633M750.292 665.461l-12.424-6.895M731.937 671.725l-11.718-8.067M713.505 676.847l-10.967-9.164M695.236 680.858l-10.17-10.171M677.073 683.923l-9.313-11.102M659.137 686.16l-8.398-11.943M641.349 687.693l-7.451-12.709M623.561 688.58l-6.49-13.37M605.835 688.909l-5.483-13.971M588.216 688.775l-4.477-14.466M570.731 688.309l-3.471-14.887M553.332 687.605l-2.448-15.233M535.967 686.777l-1.412-15.518M518.54 685.892l-.361-15.668M500.876 684.946l.751-15.684M482.772 683.774l1.908-15.519" stroke-width=".012"/><path d="m464.098 682.256 3.034-15.202M444.766 680.243l4.146-14.737M424.68 677.538l5.228-14.106M403.862 674.008l6.249-13.325M382.256 669.441l7.241-12.348" stroke-width=".024"/><path d="m359.906 663.658 8.127-11.237M336.813 656.358l8.923-9.99" stroke-width=".037"/><path d="m313.065 647.327 9.645-8.623M288.741 636.393l10.245-7.075" stroke-width=".049"/><path d="m263.985 623.472 10.711-5.408" stroke-width=".061"/><path d="m238.897 608.3 11.042-3.59M213.648 590.753l11.207-1.683" stroke-width=".073"/><path d="m188.439 570.429 11.207.316" stroke-width=".085"/><path d="m163.502 547.323 11.027 2.374" stroke-width=".098"/><path d="m139.014 521.336 10.681 4.447" stroke-width=".11"/><path d="m790.025 635.807-12.905-3.546M772.871 644.729l-12.408-4.838M755.473 652.286l-11.853-6.084M737.867 658.566l-11.206-7.226M720.219 663.658l-10.486-8.307M702.537 667.684l-9.735-9.284M685.066 670.688l-8.938-10.185M667.759 672.821l-8.067-10.996M650.74 674.219l-7.181-11.748M633.899 674.985l-6.264-12.394M617.072 675.211l-5.333-12.995M600.352 674.939l-4.402-13.46M583.736 674.308l-3.44-13.911M567.261 673.421l-2.479-14.271M550.886 672.372l-1.563-14.587M534.554 671.259l-.646-14.827M518.181 670.223l.316-14.993M501.626 669.262l1.322-15.053M484.682 668.255l2.343-14.933" stroke-width=".012"/><path d="m467.135 667.052 3.41-14.662M448.911 665.505l4.447-14.257M429.909 663.433l5.469-13.701M410.107 660.683l6.445-12.979M389.499 657.093 396.86 645" stroke-width=".024"/><path d="m368.029 652.42 8.232-11.041M345.739 646.367l9.014-9.914" stroke-width=".037"/><path d="m322.71 638.706 9.689-8.593M298.986 629.315l10.29-7.12" stroke-width=".049"/><path d="m274.696 618.064 10.756-5.513" stroke-width=".061"/><path d="m249.94 604.709 11.087-3.755M224.853 589.071l11.282-1.863" stroke-width=".073"/><path d="m199.643 570.744 11.312.12" stroke-width=".085"/><path d="m174.528 549.698 11.146 2.148" stroke-width=".11"/><path d="m149.698 525.782 10.816 4.206" stroke-width=".122"/><path d="m743.621 646.203-10.681-6.595M726.659 651.34l-9.99-7.647M709.732 655.351l-9.269-8.608M692.804 658.399l-8.472-9.479M676.127 660.503l-7.647-10.276M659.694 661.826l-6.805-10.981M643.56 662.471l-5.934-11.597M627.632 662.59l-5.048-12.168M611.737 662.216l-4.146-12.618M595.954 661.479l-3.245-13.054M580.3 660.399l-2.329-13.37M564.781 659.151l-1.458-13.656M549.324 657.784l-.601-13.896M533.91 656.431l.24-14.091M518.496 655.229l1.082-14.256M502.947 654.209l1.938-14.346M487.024 653.323l2.899-14.256" stroke-width=".012"/><path d="m470.544 652.392 3.846-14.031M453.357 651.25l4.792-13.67M435.378 649.731l5.738-13.19M416.553 647.703l6.655-12.543M396.861 644.999l7.511-11.747" stroke-width=".024"/><path d="m376.262 641.38 8.338-10.786" stroke-width=".037"/><path d="m354.753 636.451 9.089-9.719M332.397 630.112l9.749-8.472M309.28 622.195l10.32-7.061" stroke-width=".049"/><path d="m285.455 612.551 10.801-5.498M261.026 600.953l11.146-3.815" stroke-width=".073"/><path d="m236.137 587.209 11.326-1.952" stroke-width=".085"/><path d="M210.955 570.864h11.357" stroke-width=".098"/><path d="m185.675 551.846 11.222 2.028" stroke-width=".11"/><path d="m160.513 529.987 10.906 4.086" stroke-width=".122"/><path d="m716.672 643.694-8.683-8.157M700.461 646.741l-7.887-8.998M684.331 648.921l-7.091-9.765M668.48 650.227l-6.28-10.41M652.888 650.843l-5.423-11.012M637.624 650.873l-4.552-11.522M622.585 650.424l-3.695-11.943M607.594 649.598l-2.839-12.319M592.705 648.424l-1.983-12.604M577.969 647.028l-1.142-12.844M563.324 645.496l-.315-13.054M548.719 643.887l.451-13.204M534.151 642.342l1.172-13.37M519.579 640.973l1.893-13.52M504.886 639.862l2.614-13.625M489.925 639.066l3.425-13.596" stroke-width=".012"/><path d="m474.391 638.359 4.281-13.415M458.148 637.579l5.168-13.13M441.115 636.543l6.009-12.709M423.207 635.16l6.85-12.139" stroke-width=".024"/><path d="m404.371 633.251 7.691-11.417M384.601 630.595l8.458-10.546" stroke-width=".037"/><path d="m363.839 626.733 9.163-9.539M342.145 621.64l9.825-8.368" stroke-width=".049"/><path d="m319.601 615.134 10.395-7.045" stroke-width=".061"/><path d="m296.253 607.054 10.846-5.528M272.175 597.139l11.177-3.875" stroke-width=".073"/><path d="m247.462 585.255 11.387-2.058" stroke-width=".085"/><path d="m222.314 570.864 11.432-.12" stroke-width=".11"/><path d="m196.894 553.874 11.312 1.893" stroke-width=".122"/><path d="m171.419 534.075 11.011 3.951" stroke-width=".147"/><path d="m692.573 637.743-6.549-9.449M677.237 639.157l-5.724-10.08M662.198 639.817l-4.882-10.636M647.462 639.832l-4.026-11.086M633.072 639.351l-3.199-11.478M618.889 638.479l-2.358-11.807M604.754 637.279l-1.547-12.063M590.725 635.821l-.736-12.259M576.829 634.185l.03-12.394M563.009 632.441l.781-12.483M549.173 630.684l1.472-12.589M535.32 628.97l2.103-12.708M521.469 627.455l2.689-12.844M507.502 626.237l3.305-12.919M493.348 625.47l3.996-12.919" stroke-width=".012"/><path d="m478.672 624.946 4.777-12.784M463.319 624.448l5.544-12.543M447.125 623.832l6.324-12.168M430.06 623.023l7.105-11.688" stroke-width=".024"/><path d="m412.063 621.835 7.872-11.026" stroke-width=".037"/><path d="m393.059 620.047 8.593-10.245M373.005 617.194l9.268-9.329M351.971 613.272l9.9-8.202" stroke-width=".049"/><path d="m329.995 608.09 10.44-6.91" stroke-width=".061"/><path d="m307.099 601.524 10.891-5.468" stroke-width=".073"/><path d="m283.351 593.263 11.252-3.861" stroke-width=".085"/><path d="m258.851 583.197 11.447-2.103" stroke-width=".098"/><path d="m233.746 570.744 11.492-.18" stroke-width=".11"/><path d="m208.21 555.768 11.387 1.818" stroke-width=".122"/><path d="m182.431 538.026 11.102 3.875" stroke-width=".147"/><path d="m686.027 628.295-4.311-10.366M671.513 629.076l-3.531-10.741M657.32 629.18l-2.764-11.056M643.439 628.746l-2.028-11.312M629.871 627.875l-1.292-11.522M616.534 626.672l-.586-11.658M603.208 625.215l.09-11.763M589.987 623.562l.766-11.838M576.86 621.79l1.412-11.882M563.788 619.959l1.983-11.928M550.646 618.095l2.508-12.003M537.424 616.262l2.975-12.093M524.16 614.609l3.425-12.213M510.803 613.319l3.921-12.349M497.345 612.552l4.536-12.348" stroke-width=".012"/><path d="m483.447 612.161 5.212-12.243M468.861 611.905l5.904-12.033M453.448 611.665l6.61-11.733M437.164 611.334l7.331-11.282" stroke-width=".024"/><path d="m419.934 610.81 8.037-10.726" stroke-width=".037"/><path d="m401.652 609.803 8.728-10.005M382.271 607.864l9.389-9.133" stroke-width=".049"/><path d="m361.873 605.071 9.99-8.082" stroke-width=".061"/><path d="m340.435 601.18 10.531-6.835M317.992 596.056l10.966-5.438" stroke-width=".073"/><path d="m294.601 589.403 11.282-3.861" stroke-width=".085"/><path d="m270.297 581.095 11.493-2.118" stroke-width=".11"/><path d="m245.239 570.563 11.568-.225" stroke-width=".122"/><path d="m219.593 557.585 11.448 1.787" stroke-width=".134"/><path d="m193.53 541.902 11.177 3.861" stroke-width=".159"/><path d="m681.716 617.929-2.073-11.297M667.985 618.336l-1.217-11.492M654.551 618.126l-.435-11.583M641.409 617.433l.3-11.627M628.582 616.353l.991-11.598M615.945 615.015l1.622-11.552M603.295 613.452l2.209-11.477M590.755 611.725l2.704-11.372M578.269 609.907l3.184-11.296M565.77 608.029l3.605-11.206M553.154 606.092l3.951-11.192M540.396 604.169l4.237-11.237M527.582 602.397l4.492-11.342M514.723 600.969l4.807-11.493" stroke-width=".012"/><path d="m501.882 600.204 5.243-11.552M488.662 599.918l5.784-11.477M474.768 599.873l6.384-11.312M460.059 599.933l7.03-11.026" stroke-width=".024"/><path d="m444.494 600.053 7.676-10.605M427.969 600.082l8.307-10.051" stroke-width=".037"/><path d="m410.381 599.798 8.953-9.389M391.66 598.732l9.555-8.578" stroke-width=".049"/><path d="m371.86 596.988 10.111-7.572" stroke-width=".061"/><path d="m350.967 594.345 10.606-6.399" stroke-width=".073"/><path d="m328.957 590.619 11.026-5.062" stroke-width=".085"/><path d="m305.884 585.541 11.342-3.546" stroke-width=".098"/><path d="m281.787 578.975 11.552-1.863" stroke-width=".11"/><path d="m256.803 570.339 11.582-.03" stroke-width=".122"/><path d="m231.04 559.373 11.492 1.922" stroke-width=".147"/><path d="m204.707 545.761 11.237 3.936" stroke-width=".171"/><path d="m679.64 606.633-.992-11.733M666.769 606.843l-.015-11.883M654.12 606.542l.917-11.928M641.709 605.806l1.788-11.853M629.572 604.755l2.539-11.717M617.568 603.464l3.215-11.508M605.505 601.976l3.8-11.267M593.458 600.354l4.341-11.041M581.454 598.611l4.777-10.771M569.376 596.822l5.123-10.575M557.105 594.901l5.378-10.411M544.635 592.932l5.559-10.35M532.076 591.055l5.694-10.396M519.53 589.478l5.859-10.501" stroke-width=".012"/><path d="m507.123 588.65 6.159-10.531M494.447 588.441l6.55-10.485M481.149 588.562l7.001-10.366M467.09 588.907l7.511-10.17" stroke-width=".024"/><path d="m452.174 589.446 8.052-9.839" stroke-width=".037"/><path d="m436.276 590.034 8.623-9.389M419.331 590.408l9.178-8.773" stroke-width=".049"/><path d="m401.218 590.153 9.734-7.977" stroke-width=".061"/><path d="m381.972 589.416 10.246-6.986M361.571 587.946l10.696-5.859" stroke-width=".073"/><path d="m339.985 585.555 11.086-4.566" stroke-width=".085"/><path d="m317.225 581.997 11.387-3.14" stroke-width=".11"/><path d="m293.341 577.113 11.552-1.517" stroke-width=".122"/><path d="m268.389 570.309 11.613.271" stroke-width=".134"/><path d="m242.536 561.295 11.507 2.163" stroke-width=".159"/><path d="m215.943 549.698 11.267 4.146" stroke-width=".183"/><path d="m678.65 594.899-.541-11.928M666.75 594.961l.586-12.093M655.033 594.615l1.638-12.108M643.498 593.953l2.614-12.003M632.11 593.036l3.5-11.807M620.783 591.956l4.297-11.537M609.306 590.71l5.003-11.192M597.801 589.313l5.574-10.816M586.232 587.839l6.069-10.441M574.5 586.248l6.43-10.08M562.484 584.489l6.67-9.78M550.195 582.583l6.79-9.585M537.772 580.659l6.88-9.494M525.389 578.977l6.925-9.509" stroke-width=".012"/><path d="m513.284 578.121 7.121-9.48M500.997 577.955l7.421-9.374M488.151 578.195l7.751-9.253M474.601 578.735l8.128-9.043" stroke-width=".024"/><path d="m460.223 579.608 8.563-8.773" stroke-width=".037"/><path d="m444.902 580.643 9.013-8.383M428.512 581.636l9.495-7.857" stroke-width=".049"/><path d="m410.951 582.176 9.96-7.181" stroke-width=".061"/><path d="m392.217 582.432 10.411-6.324" stroke-width=".073"/><path d="m372.27 582.085 10.816-5.227" stroke-width=".085"/><path d="m351.07 580.988 11.161-3.996" stroke-width=".098"/><path d="m328.614 578.857 11.417-2.569" stroke-width=".11"/><path d="m304.894 575.596 11.582-1.021" stroke-width=".122"/><path d="m280.001 570.578 11.612.691" stroke-width=".147"/><path d="m254.042 563.458 11.522 2.539" stroke-width=".171"/><path d="m227.21 553.843 11.251 4.462" stroke-width=".208"/><path d="m667.34 582.867.856-12.183M656.673 582.506l1.983-12.214M646.109 581.952l3.05-12.124M635.612 581.229l4.026-11.898M625.08 580.418l4.897-11.582M614.311 579.518l5.693-11.191M603.374 578.496l6.354-10.741M592.303 577.4l6.895-10.275M580.929 576.168l7.301-9.81M569.153 574.71l7.571-9.404M556.983 572.998l7.692-9.088M544.649 571.165l7.722-8.923M532.316 569.468l7.736-8.848" stroke-width=".012"/><path d="m520.405 568.641 7.872-8.728M508.414 568.581l8.098-8.548M495.902 568.942l8.382-8.368" stroke-width=".024"/><path d="m482.726 569.692 8.683-8.142M468.789 570.834l9.013-7.857" stroke-width=".037"/><path d="m453.913 572.262 9.389-7.511M438.008 573.778l9.779-7.03" stroke-width=".049"/><path d="m420.91 574.995 10.185-6.399M402.63 576.106l10.591-5.573" stroke-width=".073"/><path d="m383.083 576.857 10.951-4.597" stroke-width=".085"/><path d="m362.231 576.995 11.252-3.41" stroke-width=".11"/><path d="m340.032 576.286 11.477-2.043" stroke-width=".122"/><path d="m316.476 574.575 11.597-.495" stroke-width=".147"/><path d="m291.613 571.27 11.612 1.187" stroke-width=".159"/><path d="m265.563 565.998 11.507 2.974" stroke-width=".183"/><path d="m238.465 558.306 11.267 4.852" stroke-width=".22"/><path d="m668.193 570.683 1.037-12.228M658.657 570.295l2.133-12.259M649.159 569.827l3.215-12.168M639.635 569.332l4.251-11.973M629.979 568.835l5.213-11.642M620.005 568.326l6.084-11.236M609.728 567.754l6.835-10.741M599.196 567.124l7.452-10.2M588.229 566.357l7.917-9.659M576.721 565.307l8.217-9.179M564.675 563.91l8.367-8.789M552.369 562.242l8.413-8.488" stroke-width=".012"/><path d="m540.056 560.62 8.412-8.322M528.276 559.913l8.518-8.127M516.512 560.033l8.728-7.872M504.286 560.573l8.938-7.617" stroke-width=".024"/><path d="m491.409 561.549 9.194-7.346" stroke-width=".037"/><path d="m477.802 562.976 9.464-7.03M463.303 564.75l9.779-6.625" stroke-width=".049"/><path d="m447.785 566.749 10.11-6.189" stroke-width=".061"/><path d="m431.094 568.596 10.44-5.559" stroke-width=".073"/><path d="m413.221 570.535 10.771-4.777" stroke-width=".085"/><path d="m394.036 572.261 11.086-3.831" stroke-width=".098"/><path d="m373.484 573.584 11.342-2.734" stroke-width=".11"/><path d="m351.506 574.244 11.552-1.457" stroke-width=".122"/><path d="m328.071 574.08 11.658-.015" stroke-width=".147"/><path d="m303.223 572.458 11.657 1.637" stroke-width=".171"/><path d="m277.069 568.971 11.507 3.38" stroke-width=".208"/><path d="m249.731 563.157 11.252 5.258" stroke-width=".232"/><path d="m669.229 558.456 1.082-12.228M660.788 558.035l2.194-12.288M652.377 557.659l3.275-12.244M643.887 557.359l4.296-12.018M635.191 557.193l5.273-11.732M626.085 557.088l6.189-11.327M616.565 557.013l7.015-10.831M606.65 556.923l7.721-10.261M596.146 556.698l8.262-9.689M584.938 556.128l8.608-9.134M573.044 555.122l8.818-8.683M560.785 553.755l8.893-8.323" stroke-width=".012"/><path d="m548.466 552.298 8.894-8.068M536.792 551.786l9.014-7.781M525.241 552.16l9.179-7.466M513.222 552.958l9.374-7.151" stroke-width=".024"/><path d="m500.606 554.205 9.6-6.805" stroke-width=".037"/><path d="m487.264 555.947 9.854-6.43M473.085 558.124l10.11-6.009" stroke-width=".049"/><path d="m457.896 560.56 10.38-5.499" stroke-width=".061"/><path d="m441.538 563.039 10.681-4.882" stroke-width=".073"/><path d="m423.988 565.756 10.981-4.086" stroke-width=".085"/><path d="m405.123 568.429 11.236-3.154" stroke-width=".11"/><path d="m384.826 570.849 11.462-2.073" stroke-width=".122"/><path d="m363.058 572.786 11.612-.826" stroke-width=".147"/><path d="m339.729 574.065 11.703.571" stroke-width=".159"/><path d="m314.882 574.094 11.673 2.118" stroke-width=".183"/><path d="m288.579 572.352 11.537 3.845" stroke-width=".22"/><path d="m260.982 568.415 11.267 5.634" stroke-width=".256"/><path d="m670.314 546.227 1.112-12.243M662.979 545.747l2.209-12.319M655.652 545.417l3.23-12.229M648.187 545.341l4.221-12.093M640.463 545.462l5.168-11.808M632.276 545.762l6.069-11.432M623.576 546.183l6.911-10.967M614.371 546.664l7.661-10.441M604.408 547.008l8.247-9.855M593.548 546.993l8.668-9.299M581.86 546.437l8.893-8.789" stroke-width=".012"/><path d="m569.677 545.431 8.998-8.398M557.357 544.23l9.043-8.127M545.807 544.004l9.178-7.812M534.422 544.695l9.389-7.436" stroke-width=".024"/><path d="m522.6 545.807 9.599-7.06M510.204 547.399l9.84-6.655" stroke-width=".037"/><path d="m497.121 549.517 10.095-6.205" stroke-width=".049"/><path d="m483.192 552.117 10.351-5.724" stroke-width=".061"/><path d="m468.277 555.062 10.621-5.153" stroke-width=".073"/><path d="m452.218 558.155 10.906-4.447" stroke-width=".085"/><path d="m434.972 561.671 11.162-3.606" stroke-width=".098"/><path d="m416.358 565.277 11.402-2.629" stroke-width=".11"/><path d="m396.289 568.776 11.597-1.502" stroke-width=".122"/><path d="m374.67 571.96 11.718-.24" stroke-width=".147"/><path d="m351.431 574.635 11.747 1.156" stroke-width=".183"/><path d="m326.555 576.211 11.717 2.704" stroke-width=".208"/><path d="m300.113 576.197 11.552 4.356" stroke-width=".244"/><path d="m272.248 574.048 11.281 6.129" stroke-width=".281"/><path d="m671.425 533.984 1.097-12.213M665.187 533.427l2.163-12.288M658.883 533.189l3.2-12.273M652.404 533.248l4.161-12.123M645.629 533.654l5.077-11.897M638.346 534.33l5.949-11.552M630.489 535.216l6.76-11.116M622.029 536.222l7.496-10.62M612.656 537.154l8.127-10.065M602.214 537.695l8.548-9.525M590.755 537.649l8.818-9.044" stroke-width=".012"/><path d="m578.675 537.035 8.983-8.653M566.402 536.103l9.044-8.368M554.985 536.191l9.224-7.992M543.81 537.26l9.464-7.616" stroke-width=".024"/><path d="m532.198 538.746 9.705-7.211" stroke-width=".037"/><path d="m520.043 540.744 9.96-6.76M507.214 543.312l10.23-6.264" stroke-width=".049"/><path d="m493.542 546.393 10.531-5.724" stroke-width=".061"/><path d="m478.896 549.909 10.802-5.078" stroke-width=".073"/><path d="m463.121 553.708 11.072-4.296" stroke-width=".085"/><path d="m446.135 558.067 11.342-3.381" stroke-width=".11"/><path d="m427.762 562.647 11.552-2.299" stroke-width=".122"/><path d="m407.886 567.274 11.717-1.127" stroke-width=".147"/><path d="m386.388 571.72 11.823.18" stroke-width=".159"/><path d="m363.178 575.791 11.852 1.607" stroke-width=".195"/><path d="m338.271 578.917 11.762 3.155" stroke-width=".22"/><path d="m311.669 580.554 11.613 4.837" stroke-width=".256"/><path d="m283.532 580.179 11.297 6.58" stroke-width=".305"/><path d="m672.52 521.769 1.112-12.198M667.355 521.139l2.149-12.303M662.082 520.913l3.139-12.288M656.569 521.124l4.086-12.154M650.708 521.754l4.987-11.942M644.296 522.776l5.843-11.643M637.247 524.101l6.625-11.267M629.529 525.601l7.331-10.801M620.784 527.089l7.977-10.29M610.762 528.171l8.473-9.75M599.575 528.606l8.803-9.269" stroke-width=".012"/><path d="m587.658 528.38 8.983-8.863M575.446 527.735l9.088-8.547M564.208 528.2l9.344-8.157M553.274 529.642l9.584-7.736" stroke-width=".024"/><path d="m541.9 531.536 9.87-7.271" stroke-width=".037"/><path d="m530.003 533.984 10.155-6.775M517.443 537.048l10.44-6.234" stroke-width=".049"/><path d="m504.075 540.668 10.711-5.603M489.697 544.831l11.012-4.897" stroke-width=".073"/><path d="m474.195 549.413 11.297-4.027" stroke-width=".085"/><path d="m457.474 554.685 11.538-3.019" stroke-width=".11"/><path d="m439.313 560.347 11.733-1.892" stroke-width=".122"/><path d="m419.602 566.147 11.882-.661" stroke-width=".147"/><path d="m398.212 571.9 11.942.706" stroke-width=".183"/><path d="m375.031 577.398 11.943 2.149" stroke-width=".208"/><path d="m350.033 582.07 11.852 3.71" stroke-width=".244"/><path d="m323.281 585.391 11.627 5.378" stroke-width=".281"/><path d="m294.825 586.758 11.327 7.121" stroke-width=".317"/><path d="m673.632 509.572 1.082-12.168M669.5 508.837l2.118-12.274M665.222 508.626l3.08-12.289M660.653 508.971l4.011-12.213M655.696 509.812l4.897-12.018M650.139 511.134l5.753-11.747M643.875 512.831l6.505-11.387M636.857 514.799l7.241-10.966M628.762 516.796l7.872-10.486M619.234 518.419l8.398-9.975" stroke-width=".012"/><path d="m608.376 519.336 8.788-9.464M596.644 519.515l9.028-9.028M584.534 519.186l9.209-8.668M573.555 520.041l9.48-8.232" stroke-width=".024"/><path d="m562.859 521.907 9.794-7.751" stroke-width=".037"/><path d="m551.769 524.265 10.08-7.226M540.159 527.208l10.381-6.67" stroke-width=".049"/><path d="m527.886 530.814 10.696-6.039" stroke-width=".061"/><path d="m514.787 535.065 10.981-5.333" stroke-width=".073"/><path d="m500.708 539.933 11.252-4.536" stroke-width=".085"/><path d="m485.49 545.386 11.523-3.575" stroke-width=".098"/><path d="m469.01 551.665 11.762-2.494" stroke-width=".122"/><path d="m451.046 558.456 11.943-1.292" stroke-width=".147"/><path d="M431.486 565.486h12.033" stroke-width=".159"/><path d="m410.154 572.607 12.078 1.412" stroke-width=".195"/><path d="m386.976 579.547 12.018 2.869" stroke-width=".232"/><path d="m361.888 585.783 11.883 4.431" stroke-width=".269"/><path d="m334.906 590.769 11.657 6.069" stroke-width=".305"/><path d="m306.154 593.879 11.327 7.782" stroke-width=".354"/><path d="m674.715 497.403 1.037-12.108M671.619 496.561l2.013-12.259M668.298 496.336l2.974-12.274M664.662 496.756l3.876-12.213M660.594 497.793l4.762-12.063M655.894 499.387l5.588-11.838M650.378 501.444l6.384-11.538M644.097 503.834l7.076-11.147M636.632 506.311l7.706-10.711M627.636 508.444l8.262-10.215" stroke-width=".012"/><path d="m617.165 509.873 8.698-9.72M605.67 510.487l9.014-9.269M593.741 510.518l9.254-8.848M583.034 511.808l9.584-8.367" stroke-width=".024"/><path d="m572.653 514.152 9.93-7.842" stroke-width=".037"/><path d="m561.85 517.037 10.26-7.286M550.536 520.539l10.606-6.655" stroke-width=".049"/><path d="m538.581 524.777 10.906-5.964M525.769 529.732l11.236-5.197" stroke-width=".073"/><path d="m511.963 535.396 11.522-4.296" stroke-width=".085"/><path d="m497.015 541.812 11.778-3.26" stroke-width=".11"/><path d="m480.777 549.171 11.973-2.088" stroke-width=".122"/><path d="m462.986 557.164 12.153-.841" stroke-width=".159"/><path d="m443.518 565.486 12.228.541" stroke-width=".183"/><path d="m422.232 574.02 12.213 1.968" stroke-width=".22"/><path d="m398.991 582.416 12.153 3.485" stroke-width=".244"/><path d="m373.771 590.214 11.973 5.048" stroke-width=".293"/><path d="m346.564 596.837 11.702 6.715" stroke-width=".342"/><path d="m317.481 601.66 11.342 8.398" stroke-width=".391"/><path d="m675.75 485.296.886-12.033M673.631 484.304l1.832-12.183M671.272 484.065l2.749-12.259M668.54 484.544l3.65-12.228M665.357 485.732l4.521-12.123M661.478 487.548l5.363-11.928M656.762 489.906l6.114-11.657M651.173 492.686l6.82-11.327M644.341 495.599l7.466-10.936M635.898 498.23l8.022-10.501" stroke-width=".012"/><path d="m625.861 500.152 8.533-10.02M614.685 501.219l8.938-9.539M602.996 501.669l9.299-9.059" stroke-width=".024"/><path d="m592.618 503.441 9.704-8.502M582.581 506.311l10.095-7.917" stroke-width=".037"/><path d="m572.112 509.751 10.485-7.271" stroke-width=".049"/><path d="m561.144 513.882 10.831-6.565" stroke-width=".061"/><path d="m549.488 518.812 11.207-5.784" stroke-width=".073"/><path d="m537.004 524.534 11.507-4.897" stroke-width=".085"/><path d="m523.482 531.101 11.807-3.906" stroke-width=".098"/><path d="m508.793 538.55 12.063-2.764" stroke-width=".122"/><path d="m492.747 547.084 12.258-1.517" stroke-width=".147"/><path d="m475.142 556.323 12.364-.18" stroke-width=".159"/><path d="m455.747 566.027 12.409 1.247" stroke-width=".208"/><path d="m434.448 575.988 12.378 2.734" stroke-width=".232"/><path d="m411.148 585.903 12.243 4.251" stroke-width=".281"/><path d="m385.745 595.261 12.048 5.828" stroke-width=".317"/><path d="m358.265 603.554 11.748 7.466" stroke-width=".366"/><path d="m328.823 610.059 11.357 9.134" stroke-width=".415"/><path d="m676.637 473.263.691-11.898M675.465 472.12l1.637-12.108M674.025 471.806l2.539-12.198M672.192 472.316l3.425-12.213M669.875 473.607l4.281-12.153M666.842 475.619l5.122-12.003M662.875 478.249l5.888-11.778M657.992 481.36l6.595-11.507M651.806 484.665l7.21-11.176" stroke-width=".012"/><path d="m643.919 487.728 7.797-10.786M634.395 490.132l8.338-10.335M623.624 491.679l8.833-9.84M612.296 492.611l9.299-9.299" stroke-width=".024"/><path d="m602.323 494.94 9.78-8.698" stroke-width=".037"/><path d="m592.679 498.394 10.215-8.067M582.598 502.481l10.635-7.391" stroke-width=".049"/><path d="m571.978 507.318 11.057-6.609" stroke-width=".061"/><path d="m560.693 513.027 11.417-5.739" stroke-width=".073"/><path d="m548.51 519.639 11.762-4.777" stroke-width=".085"/><path d="m535.29 527.195 12.063-3.711" stroke-width=".11"/><path d="m520.856 535.787 12.319-2.479" stroke-width=".122"/><path d="m505.008 545.566 12.498-1.172" stroke-width=".159"/><path d="m487.504 556.143 12.604.255" stroke-width=".183"/><path d="m468.154 567.274 12.618 1.743" stroke-width=".22"/><path d="m446.827 578.72 12.543 3.305" stroke-width=".256"/><path d="m423.388 590.154 12.393 4.912" stroke-width=".305"/><path d="m397.79 601.091 12.153 6.549" stroke-width=".354"/><path d="m370.014 611.02 11.808 8.218" stroke-width=".403"/><path d="m340.18 619.191 11.372 9.87" stroke-width=".452"/><path d="m677.327 461.365.616-11.838M677.101 460.012l1.472-12.018M676.561 459.606l2.344-12.138M675.614 460.103l3.185-12.198M674.157 461.455l4.041-12.183M671.967 463.616l4.837-12.078M668.764 466.472l5.603-11.927M664.589 469.851l6.28-11.687M659.014 473.488l6.88-11.402" stroke-width=".012"/><path d="m651.715 476.943 7.436-11.087M642.733 479.796l8.007-10.696M632.454 481.84l8.563-10.231M621.597 483.313l9.164-9.644" stroke-width=".024"/><path d="m612.102 486.242 9.705-9.043" stroke-width=".037"/><path d="m602.893 490.328 10.2-8.397M593.231 495.09l10.696-7.661" stroke-width=".049"/><path d="m583.033 500.707 11.162-6.835" stroke-width=".073"/><path d="m572.111 507.287 11.582-5.889" stroke-width=".085"/><path d="m560.272 514.858 11.973-4.852" stroke-width=".098"/><path d="m547.354 523.483 12.303-3.666" stroke-width=".122"/><path d="m533.175 533.308 12.558-2.328" stroke-width=".147"/><path d="m517.503 544.394 12.754-.901" stroke-width=".171"/><path d="m500.111 556.397 12.844.616" stroke-width=".208"/><path d="m480.775 569.016 12.844 2.209" stroke-width=".244"/><path d="m459.367 582.027 12.754 3.861" stroke-width=".281"/><path d="m435.781 595.066 12.559 5.528" stroke-width=".33"/><path d="m409.945 607.639 12.259 7.196" stroke-width=".378"/><path d="m381.824 619.237 11.898 8.893" stroke-width=".44"/><path d="M351.553 629.061 363 639.636" stroke-width=".501"/><path d="m677.943 449.527.601-11.778M678.573 447.995 680 436.007M678.906 447.469l2.238-12.123M678.801 447.904l3.064-12.183M678.197 449.272l3.86-12.198M676.805 451.541l4.656-12.138M674.367 454.545l5.393-12.018M670.87 458.164l6.054-11.838M665.896 462.084l6.655-11.627" stroke-width=".012"/><path d="m659.15 465.856 7.196-11.357M650.736 469.101l7.752-11.012M641.021 471.61l8.397-10.546" stroke-width=".024"/><path d="m630.756 473.668 9.074-9.96M621.806 477.199l9.69-9.329" stroke-width=".037"/><path d="m613.094 481.931 10.246-8.683" stroke-width=".049"/><path d="m603.927 487.428 10.771-7.917" stroke-width=".061"/><path d="m594.194 493.874 11.267-7.046" stroke-width=".073"/><path d="m583.693 501.4 11.732-6.084" stroke-width=".085"/><path d="m572.246 510.006 12.154-4.957" stroke-width=".11"/><path d="m559.659 519.817 12.514-3.71" stroke-width=".122"/><path d="m545.733 530.978 12.814-2.298" stroke-width=".147"/><path d="m530.259 543.493 12.994-.796" stroke-width=".183"/><path d="m512.953 557.013 13.085.781" stroke-width=".22"/><path d="m493.617 571.225 13.085 2.463" stroke-width=".256"/><path d="m472.119 585.886 12.965 4.206" stroke-width=".317"/><path d="m448.342 600.593 12.754 5.919" stroke-width=".366"/><path d="m422.203 614.834 12.454 7.661" stroke-width=".415"/><path d="m393.718 628.13 12.048 9.405" stroke-width=".488"/><path d="m362.998 639.637 11.552 11.086" stroke-width=".549"/><path d="m678.545 437.75.465-11.673M680.002 436.006l1.277-11.882M681.143 435.345l2.058-12.048M681.866 435.722l2.84-12.154M682.061 437.074l3.62-12.198M681.459 439.403l4.371-12.199M679.762 442.526l5.093-12.109M676.925 446.327l5.738-11.988M672.548 450.459l6.28-11.823" stroke-width=".012"/><path d="m666.345 454.5 6.835-11.627M658.487 458.089l7.422-11.357M649.414 461.064l8.112-10.936" stroke-width=".024"/><path d="m639.834 463.708 8.878-10.35" stroke-width=".037"/><path d="m631.496 467.87 9.569-9.735M623.339 473.247l10.185-9.059" stroke-width=".049"/><path d="m614.698 479.512 10.771-8.292" stroke-width=".061"/><path d="m605.461 486.828 11.342-7.406" stroke-width=".073"/><path d="m595.425 495.315 11.852-6.37" stroke-width=".085"/><path d="m584.4 505.05 12.318-5.183" stroke-width=".11"/><path d="m572.171 516.105 12.724-3.83" stroke-width=".134"/><path d="m558.547 528.68 13.025-2.343" stroke-width=".159"/><path d="m543.254 542.698 13.25-.736" stroke-width=".208"/><path d="m526.039 557.796 13.355.977" stroke-width=".244"/><path d="m506.704 573.688 13.34 2.749" stroke-width=".293"/><path d="m485.086 590.094 13.22 4.582" stroke-width=".342"/><path d="m461.094 606.512 12.964 6.43" stroke-width=".403"/><path d="m434.654 622.498 12.619 8.262" stroke-width=".464"/><path d="m405.767 637.534 12.169 10.065" stroke-width=".537"/><path d="m374.553 650.725 11.642 11.792" stroke-width=".598"/><path d="m679.011 426.078.331-11.552M681.278 424.124l1.097-11.792M683.203 423.298l1.878-11.988M684.706 423.568l2.629-12.123M685.679 424.876l3.41-12.198M685.831 427.203l4.162-12.214M684.857 430.419l4.852-12.183M682.66 434.339l5.468-12.123M678.831 438.637l6.009-12.033" stroke-width=".012"/><path d="m673.182 442.872 6.549-11.883M665.909 446.732l7.166-11.657M657.53 450.128l7.917-11.252" stroke-width=".024"/><path d="m648.711 453.357 8.743-10.696" stroke-width=".037"/><path d="m641.063 458.133 9.494-10.065M633.525 464.188l10.155-9.434" stroke-width=".049"/><path d="m625.472 471.219 10.816-8.638" stroke-width=".073"/><path d="m616.801 479.421 11.417-7.692" stroke-width=".085"/><path d="m607.28 488.945 12.003-6.625" stroke-width=".098"/><path d="m596.72 499.867 12.513-5.363" stroke-width=".122"/><path d="m584.893 512.276 12.95-3.921" stroke-width=".147"/><path d="m571.57 526.339 13.31-2.314" stroke-width=".183"/><path d="m556.503 541.961 13.536-.631" stroke-width=".22"/><path d="m539.394 558.772 13.626 1.187" stroke-width=".269"/><path d="m520.045 576.437 13.61 3.125" stroke-width=".317"/><path d="m498.308 594.674 13.46 5.063" stroke-width=".378"/><path d="m474.062 612.943 13.189 7.03" stroke-width=".44"/><path d="m447.273 630.76 12.785 8.938" stroke-width=".513"/><path d="m417.936 647.598 12.304 10.771" stroke-width=".586"/><path d="m386.194 662.517 11.748 12.513" stroke-width=".659"/><path d="m679.343 414.524.21-11.447M682.374 412.331l.962-11.703M685.079 411.31l1.713-11.898M687.332 411.444l2.449-12.063M689.091 412.676l3.17-12.168M689.991 414.989l3.875-12.244M689.705 418.234l4.522-12.273M688.13 422.216l5.092-12.259" stroke-width=".012"/><path d="m684.839 426.602 5.649-12.213M679.732 430.989l6.204-12.123M673.077 435.076l6.866-11.928M665.447 438.876l7.661-11.583" stroke-width=".024"/><path d="M657.452 442.66 666 431.619" stroke-width=".037"/><path d="m650.557 448.07 9.344-10.455" stroke-width=".049"/><path d="m643.678 454.754 10.08-9.81" stroke-width=".061"/><path d="m636.287 462.581 10.786-9.029" stroke-width=".073"/><path d="m628.218 471.73 11.477-8.082" stroke-width=".085"/><path d="m619.282 482.32 12.108-6.94" stroke-width=".11"/><path d="m609.233 494.504 12.679-5.633" stroke-width=".134"/><path d="m597.846 508.354 13.19-4.086" stroke-width=".159"/><path d="m584.879 524.024 13.55-2.419" stroke-width=".208"/><path d="m570.037 541.33 13.791-.601" stroke-width=".244"/><path d="m553.018 559.959 13.925 1.352" stroke-width=".305"/><path d="m533.654 579.564 13.896 3.365" stroke-width=".354"/><path d="m511.764 599.738 13.716 5.468" stroke-width=".427"/><path d="m487.25 619.972 13.415 7.511" stroke-width=".488"/><path d="m460.059 639.697 13.009 9.494" stroke-width=".574"/><path d="m430.238 658.369 12.483 11.372" stroke-width=".647"/><path d="m397.94 675.03 11.883 13.129" stroke-width=".72"/><path d="m679.552 403.077.045-11.297M683.339 400.629l.752-11.567M686.791 399.411l1.442-11.807M689.781 399.382l2.149-11.988M692.258 400.509l2.824-12.153M693.866 402.748l3.485-12.258M694.23 405.961l4.101-12.318M693.223 409.957l4.657-12.378" stroke-width=".012"/><path d="m690.49 414.39 5.198-12.409M685.938 418.866l5.814-12.379M679.943 423.149l6.565-12.214M673.107 427.293l7.437-11.897" stroke-width=".024"/><path d="m666.003 431.621 8.413-11.357" stroke-width=".037"/><path d="m659.901 437.614 9.314-10.756" stroke-width=".049"/><path d="m653.756 444.946 10.11-10.08" stroke-width=".061"/><path d="m647.072 453.554 10.906-9.239" stroke-width=".073"/><path d="m639.698 463.647 11.643-8.232" stroke-width=".098"/><path d="m631.39 475.381 12.333-7.03" stroke-width=".122"/><path d="m621.91 488.869 12.965-5.588" stroke-width=".147"/><path d="m611.033 504.268 13.475-3.966" stroke-width=".183"/><path d="m598.429 521.606 13.88-2.178" stroke-width=".22"/><path d="m583.831 540.73 14.151-.256" stroke-width=".281"/><path d="m566.942 561.309 14.257 1.803" stroke-width=".33"/><path d="m547.551 582.928 14.211 3.951" stroke-width=".403"/><path d="m525.484 605.205 14.016 6.099" stroke-width=".476"/><path d="m500.664 627.484 13.67 8.247" stroke-width=".549"/><path d="m473.067 649.191 13.189 10.261" stroke-width=".635"/><path d="m442.723 669.743 12.648 12.138" stroke-width=".708"/><path d="m409.826 688.16 12.003 13.866" stroke-width=".757"/><path d="m684.088 389.06.541-11.432M688.233 387.604l1.202-11.672M691.932 387.394l1.862-11.897M695.083 388.356l2.494-12.078M697.355 390.489l3.125-12.243M698.331 393.643l3.725-12.379M697.881 397.58l4.281-12.469" stroke-width=".012"/><path d="m695.684 401.981 4.882-12.544M691.749 406.488l5.573-12.528M686.505 410.934l6.415-12.394" stroke-width=".024"/><path d="m680.545 415.395 7.376-12.078" stroke-width=".037"/><path d="m674.415 420.262 8.397-11.552M669.214 426.859l9.359-10.952" stroke-width=".049"/><path d="m663.868 434.866 10.23-10.231" stroke-width=".073"/><path d="m657.98 444.313 11.072-9.359" stroke-width=".085"/><path d="m651.339 455.416 11.883-8.292" stroke-width=".11"/><path d="m643.725 468.349 12.619-7.016" stroke-width=".122"/><path d="m634.874 483.282 13.28-5.528" stroke-width=".159"/><path d="m624.509 500.302 13.836-3.816" stroke-width=".208"/><path d="m612.309 519.426 14.241-1.937" stroke-width=".244"/><path d="m597.981 540.474 14.497.09" stroke-width=".305"/><path d="m581.198 563.112 14.602 2.223" stroke-width=".366"/><path d="m561.76 586.879 14.527 4.446" stroke-width=".44"/><path d="m539.496 611.304 14.317 6.67" stroke-width=".525"/><path d="m514.336 635.732 13.941 8.878" stroke-width=".61"/><path d="m486.259 659.453 13.46 10.921" stroke-width=".696"/><path d="m455.374 681.879 12.845 12.814" stroke-width=".757"/><path d="m421.825 702.026 12.183 14.542" stroke-width=".769"/><path d="m684.628 377.629.256-11.252M689.434 375.931l.871-11.522M693.793 375.496l1.458-11.777M697.581 376.277l2.058-12.003M700.48 378.244l2.629-12.213M702.053 381.265l3.199-12.408M702.159 385.11l3.785-12.589" stroke-width=".012"/><path d="m700.565 389.437 4.447-12.679M697.322 393.959l5.258-12.709M692.921 398.541l6.189-12.588" stroke-width=".024"/><path d="m687.918 403.318 7.241-12.273" stroke-width=".037"/><path d="m682.812 408.712 8.382-11.763M678.575 415.906l9.404-11.147" stroke-width=".049"/><path d="m674.101 424.633 10.35-10.41" stroke-width=".073"/><path d="m669.051 434.955 11.267-9.464" stroke-width=".085"/><path d="m663.224 447.124 12.138-8.322" stroke-width=".11"/><path d="m656.343 461.334 12.949-6.941" stroke-width=".147"/><path d="m648.154 477.755 13.64-5.348" stroke-width=".171"/><path d="m638.346 496.486 14.211-3.53" stroke-width=".22"/><path d="m626.552 517.49 14.662-1.532" stroke-width=".281"/><path d="m612.475 540.563 14.902.586" stroke-width=".342"/><path d="m595.803 565.337 14.992 2.854" stroke-width=".415"/><path d="m576.289 591.324 14.902 5.153" stroke-width=".488"/><path d="m553.816 617.975 14.632 7.466" stroke-width=".586"/><path d="m528.278 644.609 14.211 9.674" stroke-width=".684"/><path d="m499.717 670.372 13.671 11.763" stroke-width=".745"/><path d="m468.214 694.694 13.039 13.626M434.012 716.568l12.333 15.307" stroke-width=".769"/><path d="m684.884 366.377-.046-11.071M690.308 364.409l.526-11.372M695.25 363.718l1.082-11.642M699.636 364.275l1.622-11.913M703.105 366.032l2.133-12.168M705.254 368.856l2.704-12.409M705.946 372.522l3.32-12.634" stroke-width=".012"/><path d="m705.012 376.759 4.056-12.814M702.583 381.25l4.957-12.859M699.109 385.951l6.009-12.754" stroke-width=".024"/><path d="m695.16 391.043 7.151-12.454" stroke-width=".037"/><path d="m691.194 396.948 8.368-11.928" stroke-width=".049"/><path d="m687.979 404.76 9.449-11.312" stroke-width=".061"/><path d="m684.448 414.224 10.485-10.546" stroke-width=".073"/><path d="m680.317 425.491 11.492-9.555" stroke-width=".085"/><path d="m675.358 438.8 12.424-8.322" stroke-width=".122"/><path d="m669.292 454.393 13.28-6.88" stroke-width=".147"/><path d="m661.793 472.405 14.031-5.153" stroke-width=".195"/><path d="m652.555 492.957 14.632-3.259" stroke-width=".244"/><path d="m641.214 515.958 15.068-1.142" stroke-width=".305"/><path d="m627.381 541.15 15.337 1.126" stroke-width=".378"/><path d="m610.792 568.19 15.398 3.485" stroke-width=".464"/><path d="m591.191 596.477 15.293 5.873" stroke-width=".549"/><path d="m568.447 625.441 14.977 8.218" stroke-width=".659"/><path d="m542.487 654.284 14.527 10.485" stroke-width=".745"/><path d="m513.39 682.136 13.926 12.543M481.254 708.32l13.25 14.392" stroke-width=".769"/><path d="m446.342 731.875 12.528 16.014" stroke-width=".781"/><path d="m684.84 355.306-.45-10.831M690.836 353.038l.06-11.147M696.333 352.077l.571-11.462M701.258 352.362l1.082-11.778M705.241 353.864l1.593-12.093M707.957 356.448l2.178-12.408M709.265 359.888l2.884-12.679" stroke-width=".012"/><path d="m709.068 363.944 3.725-12.89M707.538 368.391l4.717-12.98M705.118 373.198l5.859-12.889" stroke-width=".024"/><path d="m702.313 378.591 7.135-12.589" stroke-width=".037"/><path d="m699.559 385.021 8.443-12.048" stroke-width=".049"/><path d="m697.43 393.449 9.63-11.387" stroke-width=".061"/><path d="m694.934 403.679 10.756-10.546" stroke-width=".073"/><path d="m691.809 415.938 11.838-9.48" stroke-width=".098"/><path d="m687.785 430.479 12.829-8.172" stroke-width=".122"/><path d="m682.573 447.513 13.73-6.625" stroke-width=".159"/><path d="m675.827 467.252 14.512-4.837" stroke-width=".208"/><path d="m667.189 489.697 15.128-2.794" stroke-width=".269"/><path d="m656.28 514.815 15.579-.556" stroke-width=".342"/><path d="m642.717 542.277 15.819 1.817" stroke-width=".427"/><path d="m626.191 571.677 15.864 4.281" stroke-width=".525"/><path d="m606.483 602.352 15.698 6.715" stroke-width=".635"/><path d="m583.422 633.658 15.353 9.103" stroke-width=".745"/><path d="m557.013 664.768 14.857 11.357" stroke-width=".757"/><path d="m527.311 694.68 14.227 13.415" stroke-width=".769"/><path d="m494.504 722.71 13.505 15.188M458.873 747.887l12.724 16.735" stroke-width=".781"/><path d="m684.388 344.475-.856-10.591M690.896 341.891l-.375-10.922M696.9 340.615l.09-11.282M702.341 340.583l.571-11.642M706.831 341.771l1.142-12.018M710.136 344.04l1.787-12.379M712.148 347.208l2.553-12.709" stroke-width=".012"/><path d="m712.797 351.056 3.5-12.95M712.257 355.412l4.626-13.04M710.98 360.308l5.889-12.95" stroke-width=".024"/><path d="m709.445 366.002 7.256-12.619" stroke-width=".037"/><path d="m708.005 372.973 8.653-12.063" stroke-width=".049"/><path d="m707.056 382.061 9.9-11.387" stroke-width=".073"/><path d="m705.691 393.132 11.101-10.501" stroke-width=".085"/><path d="m703.646 406.457 12.228-9.359" stroke-width=".11"/><path d="m700.614 422.305 13.294-7.977" stroke-width=".147"/><path d="m696.303 440.89 14.227-6.325" stroke-width=".183"/><path d="m690.336 462.415 15.022-4.417" stroke-width=".232"/><path d="m682.317 486.903 15.668-2.283" stroke-width=".305"/><path d="m671.86 514.259 16.104.06" stroke-width=".378"/><path d="m658.537 544.094 16.345 2.523" stroke-width=".476"/><path d="m642.056 575.956 16.36 5.033" stroke-width=".586"/><path d="m622.181 609.067 16.149 7.526" stroke-width=".708"/><path d="m598.776 642.761 15.773 9.914" stroke-width=".757"/><path d="m571.869 676.126 15.203 12.168" stroke-width=".769"/><path d="m541.54 708.094 14.541 14.166M508.013 737.898l13.79 15.893" stroke-width=".781"/><path d="m471.594 764.623 12.995 17.396" stroke-width=".794"/><path d="m683.533 333.884-1.217-10.336M690.516 330.97l-.796-10.711M696.99 329.331l-.345-11.086M702.909 328.941l.181-11.492M707.976 329.754l.766-11.913M711.925 331.661l1.503-12.318M714.703 334.499l2.344-12.678" stroke-width=".012"/><path d="m716.296 338.105 3.365-12.934M716.881 342.37l4.612-13.054M716.869 347.36l5.979-12.949" stroke-width=".024"/><path d="m716.701 353.384 7.421-12.634" stroke-width=".037"/><path d="m716.656 360.909 8.893-12.063" stroke-width=".049"/><path d="m716.958 370.673 10.23-11.342" stroke-width=".073"/><path d="m716.792 382.631 11.492-10.395" stroke-width=".085"/><path d="m715.874 397.098 12.679-9.209" stroke-width=".11"/><path d="m713.907 414.329 13.79-7.736" stroke-width=".147"/><path d="m710.527 434.565 14.767-6.024" stroke-width=".208"/><path d="m705.361 457.999 15.593-4.041" stroke-width=".256"/><path d="m697.982 484.619 16.239-1.787" stroke-width=".342"/><path d="m687.962 514.319 16.69.646" stroke-width=".427"/><path d="m674.88 546.617 16.9 3.215" stroke-width=".537"/><path d="m658.415 580.989 16.885 5.798" stroke-width=".672"/><path d="m638.329 616.593 16.645 8.338" stroke-width=".757"/><path d="m614.551 652.676 16.21 10.741" stroke-width=".769"/><path d="m587.074 688.295 15.608 12.949M556.084 722.261l14.887 14.902" stroke-width=".781"/><path d="m521.799 753.792 14.091 16.555M484.589 782.019l13.265 17.982" stroke-width=".806"/><path d="m682.317 323.549-1.652-10.05M689.723 320.258l-1.216-10.456M696.649 318.246l-.706-10.907M703.09 317.45l-.136-11.372M708.739 317.84l.555-11.822M713.426 319.343l1.352-12.258M717.049 321.821l2.329-12.634" stroke-width=".012"/><path d="m719.662 325.17 3.455-12.904M721.494 329.317l4.747-13.009M722.844 334.411l6.19-12.92" stroke-width=".024"/><path d="m724.124 340.751 7.721-12.574M725.552 348.847l9.254-11.988" stroke-width=".049"/><path d="m727.189 359.331 10.621-11.252" stroke-width=".073"/><path d="m728.285 372.235 11.928-10.275" stroke-width=".098"/><path d="m728.552 387.89 13.175-9.043" stroke-width=".122"/><path d="m727.7 406.593 14.286-7.541" stroke-width=".159"/><path d="m725.296 428.539 15.277-5.768" stroke-width=".22"/><path d="m720.951 453.958 16.119-3.756" stroke-width=".293"/><path d="m714.224 482.831 16.78-1.472" stroke-width=".378"/><path d="m704.656 514.965 17.231 1.007" stroke-width=".488"/><path d="m691.781 549.832 17.441 3.575" stroke-width=".61"/><path d="m675.298 586.787 17.396 6.22" stroke-width=".745"/><path d="m654.973 624.93 17.14 8.803" stroke-width=".769"/><path d="m630.758 663.418 16.675 11.222" stroke-width=".781"/><path d="m602.682 701.243 16.044 13.445" stroke-width=".794"/><path d="m570.972 737.162 15.292 15.383M535.89 770.347l14.467 17.05" stroke-width=".806"/><path d="m497.855 800.001 13.596 18.463" stroke-width=".818"/><path d="m688.503 309.804-1.713-10.2M695.943 307.338l-1.157-10.681M702.955 306.078l-.526-11.192M709.295 306.017l.225-11.703M714.781 307.084l1.127-12.183M719.377 309.186l2.164-12.589" stroke-width=".012"/><path d="m723.115 312.268 3.395-12.905M726.241 316.307l4.792-13.01M729.034 321.49l6.325-12.935" stroke-width=".024"/><path d="m731.844 328.176 7.917-12.589" stroke-width=".049"/><path d="m734.805 336.859 9.479-12.018" stroke-width=".061"/><path d="m737.808 348.08 10.922-11.266" stroke-width=".073"/><path d="m740.213 361.961 12.304-10.246" stroke-width=".098"/><path d="m741.728 378.846 13.61-8.968" stroke-width=".134"/><path d="m741.983 399.052 14.797-7.421" stroke-width=".183"/><path d="m740.571 422.772 15.834-5.589" stroke-width=".244"/><path d="m737.071 450.204 16.705-3.501" stroke-width=".317"/><path d="m731.003 481.36 17.366-1.172" stroke-width=".427"/><path d="m721.887 515.972 17.802 1.352" stroke-width=".549"/><path d="m709.219 553.408 18.012 3.996" stroke-width=".696"/><path d="m692.697 593.007 17.967 6.654" stroke-width=".769"/><path d="m672.114 633.732 17.682 9.239" stroke-width=".781"/><path d="m647.435 674.64 17.185 11.688" stroke-width=".794"/><path d="m618.725 714.688 16.525 13.926M586.262 752.545l15.728 15.908" stroke-width=".806"/><path d="m550.361 787.397 14.857 17.546M511.448 818.465l13.941 18.928" stroke-width=".818"/><path d="m686.792 299.602-2.119-9.945M694.784 296.658l-1.517-10.485M702.431 294.886l-.796-11.056M709.518 294.314l.046-11.597M715.905 294.9l1.022-12.108M721.541 296.599l2.148-12.529" stroke-width=".012"/><path d="m726.511 299.363 3.455-12.844M731.031 303.298l4.943-12.994M735.361 308.557l6.52-12.89" stroke-width=".024"/><path d="m739.759 315.588 8.173-12.574" stroke-width=".049"/><path d="m744.284 324.84 9.809-11.988" stroke-width=".061"/><path d="m748.727 336.813 11.297-11.222" stroke-width=".085"/><path d="m752.514 351.716 12.739-10.185" stroke-width=".11"/><path d="m755.338 369.879 14.106-8.864" stroke-width=".147"/><path d="m756.784 391.63 15.337-7.256" stroke-width=".208"/><path d="m756.404 417.183 16.419-5.378" stroke-width=".269"/><path d="m753.777 446.703 17.306-3.229" stroke-width=".366"/><path d="m748.372 480.187 17.996-.857" stroke-width=".476"/><path d="m739.688 517.325 18.447 1.728" stroke-width=".635"/><path d="m727.232 557.404 18.643 4.387" stroke-width=".757"/><path d="m710.663 599.663 18.568 7.076" stroke-width=".769"/><path d="m689.797 642.972 18.267 9.675" stroke-width=".781"/><path d="m664.619 686.327 17.741 12.168" stroke-width=".806"/><path d="m635.252 728.614 17.036 14.407M601.989 768.453l16.179 16.36" stroke-width=".818"/><path d="m565.214 804.943 15.293 17.967M525.394 837.392l14.346 19.288" stroke-width=".83"/><path d="m684.672 289.658-2.404-9.719M693.266 286.172l-1.713-10.335M701.633 283.829l-.901-10.922M709.568 282.718l.015-11.507M716.926 282.794l1.097-12.018M723.687 284.069l2.328-12.469" stroke-width=".012"/><path d="m729.965 286.518 3.726-12.769M735.978 290.303l5.287-12.89" stroke-width=".024"/><path d="m741.881 295.667 6.94-12.799" stroke-width=".037"/><path d="m747.935 303.012 8.638-12.454" stroke-width=".049"/><path d="m754.092 312.851 10.306-11.882" stroke-width=".061"/><path d="m760.028 325.592 11.853-11.087" stroke-width=".085"/><path d="m765.256 341.53 13.339-10.02" stroke-width=".122"/><path d="m769.444 361.014 14.722-8.638" stroke-width=".159"/><path d="m772.118 384.374 15.999-7.001" stroke-width=".22"/><path d="m772.823 411.805 17.096-5.077" stroke-width=".305"/><path d="m771.08 443.472 18.012-2.885" stroke-width=".415"/><path d="m766.367 479.332 18.702-.451" stroke-width=".549"/><path d="m758.135 519.053 19.153 2.163" stroke-width=".72"/><path d="m745.877 561.79 19.319 4.882" stroke-width=".769"/><path d="m729.232 606.738 19.228 7.586" stroke-width=".781"/><path d="m708.065 652.647 18.868 10.23" stroke-width=".806"/><path d="m682.36 698.494 18.298 12.709M652.284 743.021l17.561 14.947" stroke-width=".818"/><path d="m618.17 784.814 16.69 16.84" stroke-width=".83"/><path d="m580.509 822.91 15.728 18.418M539.738 856.681l14.752 19.71" stroke-width=".842"/><path d="m682.269 279.938-2.449-9.599M691.555 275.837l-1.638-10.23M700.734 272.908l-.706-10.846M709.583 271.211l.36-11.432M718.023 270.776l1.547-11.958M726.014 271.6l2.899-12.378" stroke-width=".012"/><path d="m733.692 273.749 4.401-12.634M741.264 277.415l6.009-12.724" stroke-width=".024"/><path d="m748.818 282.867 7.722-12.588" stroke-width=".037"/><path d="m756.569 290.56 9.434-12.229" stroke-width=".049"/><path d="m764.399 300.969 11.101-11.598" stroke-width=".073"/><path d="m771.881 314.505 12.679-10.756" stroke-width=".085"/><path d="m778.593 331.511 14.181-9.659" stroke-width=".122"/><path d="m784.165 352.377 15.564-8.263" stroke-width=".183"/><path d="m788.119 377.374 16.81-6.595" stroke-width=".244"/><path d="m789.92 406.729 17.907-4.642" stroke-width=".342"/><path d="m789.096 440.587 18.793-2.448" stroke-width=".464"/><path d="M785.071 478.881h19.469" stroke-width=".635"/><path d="m777.286 521.216 19.905 2.674" stroke-width=".757"/><path d="m765.192 566.673 20.055 5.438" stroke-width=".781"/><path d="m748.457 614.325 19.935 8.187" stroke-width=".806"/><path d="m726.931 662.877 19.559 10.846" stroke-width=".818"/><path d="m700.661 711.204 18.943 13.325" stroke-width=".83"/><path d="m669.847 757.969 18.132 15.503M634.86 801.654l17.216 17.365" stroke-width=".842"/><path d="m596.235 841.328 16.209 18.898M554.49 876.391l15.188 20.115" stroke-width=".855"/><path d="m679.823 270.339-1.833-9.69M689.916 265.606l-.932-10.321M700.029 262.061l.105-10.921M709.941 259.779l1.247-11.463M719.57 258.817l2.523-11.928M728.915 259.222l3.906-12.273" stroke-width=".012"/><path d="m738.092 261.115 5.423-12.484M747.274 264.689l7.045-12.513" stroke-width=".024"/><path d="m756.54 270.279 8.728-12.333" stroke-width=".037"/><path d="m766.008 278.33 10.41-11.928" stroke-width=".049"/><path d="m775.498 289.372 12.018-11.312" stroke-width=".073"/><path d="m784.56 303.75 13.52-10.486" stroke-width=".098"/><path d="m792.778 321.851 14.977-9.374" stroke-width=".134"/><path d="m799.729 344.114 16.36-8.007" stroke-width=".195"/><path d="m804.928 370.779 17.606-6.325" stroke-width=".281"/><path d="m807.83 402.086 18.703-4.341" stroke-width=".378"/><path d="m807.889 438.14 19.62-2.058" stroke-width=".537"/><path d="m804.54 478.881 20.311.481" stroke-width=".72"/><path d="m797.194 523.888 20.731 3.2" stroke-width=".769"/><path d="m785.25 572.111 20.866 6.009" stroke-width=".794"/><path d="m768.391 622.512 20.701 8.773" stroke-width=".806"/><path d="m746.492 673.722 20.266 11.433" stroke-width=".83"/><path d="m719.599 724.529 19.605 13.866" stroke-width=".842"/><path d="m687.98 773.471 18.748 16.014" stroke-width=".855"/><path d="m652.073 819.02 17.772 17.846M612.444 860.226l16.735 19.319M569.678 896.506l15.668 20.52" stroke-width=".867"/><path d="m677.987 260.649-.752-9.975M688.986 255.286l.18-10.531M700.133 251.14l1.217-11.057M711.189 248.316l2.359-11.523M722.093 246.889l3.605-11.912M732.824 246.949l4.957-12.198" stroke-width=".012"/><path d="m743.515 248.631 6.445-12.364M754.319 252.178l8.022-12.364" stroke-width=".024"/><path d="m765.271 257.947 9.6-12.168" stroke-width=".037"/><path d="m776.415 266.404 11.207-11.763" stroke-width=".049"/><path d="m787.519 278.06 12.724-11.192" stroke-width=".073"/><path d="m798.079 293.262 14.256-10.35" stroke-width=".11"/><path d="m807.753 312.476 15.713-9.239" stroke-width=".147"/><path d="m816.089 336.107 17.096-7.841" stroke-width=".22"/><path d="m822.536 364.455 18.372-6.129" stroke-width=".305"/><path d="m826.533 397.744 19.499-4.116" stroke-width=".44"/><path d="m827.505 436.082 20.43-1.803" stroke-width=".61"/><path d="m824.848 479.362 21.121.751" stroke-width=".757"/><path d="m817.924 527.089 21.557 3.515" stroke-width=".781"/><path d="m806.115 578.119 21.677 6.355" stroke-width=".806"/><path d="m789.093 631.283 21.498 9.149" stroke-width=".818"/><path d="m766.758 685.154 21.032 11.793" stroke-width=".842"/><path d="m739.204 738.395 20.311 14.256" stroke-width=".855"/><path d="m706.726 789.485 19.424 16.375M669.846 836.866l18.387 18.193" stroke-width=".867"/><path d="m629.181 879.545 17.291 19.664M585.345 917.026l16.179 20.806" stroke-width=".879"/><path d="m689.166 244.755 1.307-10.771M701.351 240.084l2.238-11.192M713.545 236.795l3.29-11.582M725.701 234.975l4.476-11.927M737.78 234.75l5.768-12.183" stroke-width=".012"/><path d="m749.964 236.267 7.196-12.318M762.342 239.813l8.713-12.288" stroke-width=".024"/><path d="m774.87 245.777 10.305-12.093" stroke-width=".037"/><path d="m787.625 254.641 11.882-11.703" stroke-width=".049"/><path d="m800.241 266.868 13.445-11.102" stroke-width=".085"/><path d="m812.334 282.913 14.977-10.26" stroke-width=".11"/><path d="m823.467 303.237 16.48-9.148" stroke-width=".159"/><path d="m833.186 328.266 17.907-7.722" stroke-width=".244"/><path d="m840.909 358.326 19.229-5.979" stroke-width=".354"/><path d="m846.03 393.627 20.371-3.921" stroke-width=".488"/><path d="m847.938 434.28 21.332-1.563" stroke-width=".696"/><path d="m845.968 480.111 22.038 1.052" stroke-width=".769"/><path d="m839.483 530.605 22.443 3.845" stroke-width=".794"/><path d="m827.794 584.475 22.549 6.715" stroke-width=".818"/><path d="m810.592 640.432 22.338 9.524" stroke-width=".842"/><path d="m787.787 696.946 21.828 12.213" stroke-width=".855"/><path d="m759.518 752.65 21.077 14.647" stroke-width=".867"/><path d="m726.149 805.86 20.115 16.765M688.232 855.058l19.049 18.538M646.474 899.209l17.892 19.98M601.525 937.832l16.72 21.107" stroke-width=".879"/><path d="m690.473 233.984 1.908-10.876M703.589 228.893l2.884-11.267M716.835 225.212l3.951-11.628M730.177 223.049l5.153-11.942M743.548 222.569l6.474-12.183" stroke-width=".012"/><path d="m757.159 223.95 7.902-12.288M771.055 227.525l9.434-12.259" stroke-width=".024"/><path d="m785.174 233.685 11.027-12.048" stroke-width=".037"/><path d="m799.506 242.939 12.603-11.673" stroke-width=".061"/><path d="m813.684 255.766 14.151-11.071" stroke-width=".085"/><path d="m827.314 272.653 15.714-10.23" stroke-width=".122"/><path d="m839.946 294.089 17.246-9.103" stroke-width=".183"/><path d="m851.091 320.544 18.688-7.692" stroke-width=".269"/><path d="m860.136 352.345 20.025-5.933" stroke-width=".403"/><path d="m866.403 389.708 21.227-3.861" stroke-width=".574"/><path d="m869.272 432.716 22.203-1.472" stroke-width=".757"/><path d="m868.007 481.164 22.925 1.157" stroke-width=".781"/><path d="m861.925 534.45 23.345 3.966" stroke-width=".806"/><path d="m850.343 591.19 23.45 6.865" stroke-width=".83"/><path d="m832.93 649.958 23.209 9.689" stroke-width=".855"/><path d="m809.618 709.161 22.653 12.379" stroke-width=".867"/><path d="m780.591 767.297 21.872 14.828" stroke-width=".879"/><path d="m746.266 822.624 20.881 16.931" stroke-width=".891"/><path d="m707.28 873.597 19.74 18.703M664.365 919.189l18.553 20.145M618.245 958.939l17.336 21.257" stroke-width=".903"/><path d="m692.381 223.109 2.509-10.981M706.471 217.626l3.516-11.357M720.788 213.583l4.626-11.702M735.331 211.105l5.829-11.988M750.023 210.385l7.166-12.183" stroke-width=".012"/><path d="m765.061 211.663 8.608-12.288M780.486 215.266l10.125-12.258" stroke-width=".024"/><path d="m796.202 221.636 11.687-12.048" stroke-width=".049"/><path d="m812.11 231.267 13.265-11.673" stroke-width=".061"/><path d="m827.84 244.697 14.842-11.102" stroke-width=".085"/><path d="m843.026 262.422 16.42-10.261" stroke-width=".134"/><path d="m857.191 284.986 17.967-9.163" stroke-width=".208"/><path d="m869.781 312.853 19.454-7.737" stroke-width=".305"/><path d="m880.16 346.412 20.836-5.994" stroke-width=".452"/><path d="m887.628 385.846 22.053-3.921" stroke-width=".659"/><path d="m891.471 431.244 23.059-1.547" stroke-width=".769"/><path d="m890.931 482.32 23.811 1.112" stroke-width=".806"/><path d="m885.27 538.415 24.262 3.936" stroke-width=".818"/><path d="m873.79 598.055 24.351 6.851" stroke-width=".855"/><path d="m856.141 659.647 24.111 9.705" stroke-width=".867"/><path d="m832.267 721.54 23.555 12.393" stroke-width=".891"/><path d="m802.464 782.125 22.713 14.857M767.145 839.556l21.693 16.99" stroke-width=".903"/><path d="m727.022 892.299 20.52 18.778M682.918 939.334l19.258 20.235M635.579 980.196l17.982 21.374" stroke-width=".916"/><path d="m694.89 212.127 3.124-11.101M709.988 206.268l4.146-11.447M725.415 201.881l5.258-11.778M741.158 199.119l6.505-12.048M757.185 198.201l7.857-12.243" stroke-width=".012"/><path d="m773.665 199.373 9.299-12.334M790.614 203.009l10.801-12.288" stroke-width=".024"/><path d="m807.887 209.589 12.379-12.108" stroke-width=".049"/><path d="m825.372 219.593 13.926-11.748" stroke-width=".073"/><path d="m842.682 233.595 15.534-11.177" stroke-width=".098"/><path d="m859.445 252.162 17.126-10.365" stroke-width=".147"/><path d="m875.161 275.823 18.702-9.269" stroke-width=".22"/><path d="m889.235 305.116 20.22-7.872" stroke-width=".342"/><path d="m900.996 340.42 21.647-6.144" stroke-width=".513"/><path d="m909.679 381.926 22.894-4.086" stroke-width=".745"/><path d="m914.533 429.697 23.961-1.683" stroke-width=".781"/><path d="m914.742 483.433 24.742.991" stroke-width=".818"/><path d="m909.529 542.351 25.192 3.816" stroke-width=".842"/><path d="m898.143 604.904 25.312 6.745" stroke-width=".867"/><path d="m880.25 669.351 25.057 9.615" stroke-width=".891"/><path d="m855.823 733.933 24.487 12.378" stroke-width=".903"/><path d="m825.179 796.982 23.631 14.857M788.84 856.546l22.534 17.005" stroke-width=".916"/><path d="m747.541 911.077 21.317 18.853M702.175 959.57l19.995 20.34M653.565 1001.57l18.688 21.5" stroke-width=".928"/><path d="m698.015 201.025 3.695-11.222M714.132 194.822l4.732-11.568M730.671 190.104l5.889-11.867M747.664 187.07l7.15-12.123M765.046 185.957l8.503-12.303" stroke-width=".012"/><path d="m782.964 187.041 9.944-12.409M801.411 190.72l11.463-12.363" stroke-width=".024"/><path d="m820.267 197.481 12.995-12.198" stroke-width=".049"/><path d="m839.299 207.846 14.572-11.853" stroke-width=".073"/><path d="m858.214 222.418 16.179-11.297" stroke-width=".11"/><path d="m876.571 241.797 17.802-10.531" stroke-width=".159"/><path d="m893.862 266.554 19.409-9.464" stroke-width=".256"/><path d="m909.454 297.243 20.956-8.112" stroke-width=".391"/><path d="m922.645 334.274 22.429-6.4" stroke-width=".586"/><path d="m932.575 377.839 23.75-4.342" stroke-width=".769"/><path d="m938.495 428.013 24.847-1.952" stroke-width=".794"/><path d="m939.486 484.423 25.673.706" stroke-width=".83"/><path d="m934.722 546.167 26.169 3.561" stroke-width=".867"/><path d="m923.456 611.65 26.289 6.52" stroke-width=".879"/><path d="m905.308 678.966 26.049 9.434" stroke-width=".903"/><path d="m880.31 746.311 25.463 12.198" stroke-width=".916"/><path d="m848.807 811.839 24.577 14.752M811.373 873.551l23.465 16.976M768.861 929.931l22.173 18.853M722.17 979.91l20.807 20.42M672.251 1023.07l19.409 21.65" stroke-width=".94"/><path d="m701.711 189.804 4.176-11.327M718.864 183.255l5.243-11.672M736.561 178.237l6.43-11.958M754.812 174.947l7.707-12.213M773.548 173.655l9.104-12.408" stroke-width=".012"/><path d="m792.912 174.631 10.561-12.483" stroke-width=".024"/><path d="m812.874 178.356 12.078-12.483" stroke-width=".037"/><path d="m833.261 185.282 13.641-12.303" stroke-width=".049"/><path d="m853.874 195.992 15.233-11.988" stroke-width=".073"/><path d="m874.392 211.121 16.9-11.477" stroke-width=".122"/><path d="m894.372 231.267 18.553-10.711" stroke-width=".183"/><path d="m913.271 257.089 20.205-9.659" stroke-width=".281"/><path d="m930.412 289.133 21.828-8.307" stroke-width=".44"/><path d="m945.073 327.875 23.345-6.61" stroke-width=".672"/><path d="m956.322 373.497 24.712-4.551" stroke-width=".781"/><path d="m963.341 426.062 25.868-2.133" stroke-width=".806"/><path d="m965.156 485.129 26.74.541" stroke-width=".842"/><path d="m960.892 549.726 27.25 3.441" stroke-width=".879"/><path d="m949.745 618.17 27.401 6.414" stroke-width=".903"/><path d="m931.358 688.401 27.13 9.359" stroke-width=".916"/><path d="m905.775 758.509 26.514 12.198" stroke-width=".94"/><path d="m873.389 826.591 25.598 14.767M834.837 890.527l24.426 17.02M791.034 948.783l23.075 18.958M742.976 1000.33l21.662 20.56M691.662 1044.72l20.175 21.84" stroke-width=".952"/><path d="m705.884 178.477 4.612-11.432M724.108 171.581l5.723-11.747M742.992 166.278l6.91-12.063M762.519 162.734l8.233-12.318M782.649 161.245l9.63-12.528" stroke-width=".012"/><path d="m803.473 162.149 11.116-12.634" stroke-width=".024"/><path d="m824.952 165.873 12.664-12.619" stroke-width=".037"/><path d="m846.901 172.978 14.256-12.483" stroke-width=".049"/><path d="m869.102 184.006 15.894-12.183" stroke-width=".085"/><path d="m891.292 199.644 17.576-11.672" stroke-width=".122"/><path d="m912.923 220.555 19.304-10.936" stroke-width=".208"/><path d="m933.477 247.43 21.031-9.93" stroke-width=".317"/><path d="m952.237 280.825 22.684-8.593" stroke-width=".501"/><path d="m968.418 321.266 24.276-6.881" stroke-width=".757"/><path d="m981.039 368.947 25.721-4.808" stroke-width=".781"/><path d="m989.208 423.929 26.932-2.403" stroke-width=".818"/><path d="m991.897 485.67 27.833.315" stroke-width=".867"/><path d="m988.141 553.168 28.379 3.199" stroke-width=".891"/><path d="m977.143 624.583 28.527 6.235" stroke-width=".916"/><path d="m958.486 697.758 28.272 9.224" stroke-width=".94"/><path d="m932.289 770.707 27.641 12.109" stroke-width=".952"/><path d="m898.986 841.358 26.68 14.767M859.264 907.547l25.448 17.095M814.108 967.741l24.066 19.094M764.636 1020.89l22.534 20.76M711.835 1066.56l20.986 22.08" stroke-width=".977"/><path d="m710.498 167.045 4.972-11.523M729.832 159.834l6.084-11.853M749.901 154.216l7.316-12.168M770.751 150.416l8.637-12.439M792.278 148.717l10.065-12.633" stroke-width=".012"/><path d="m814.586 149.514 11.553-12.769" stroke-width=".024"/><path d="m837.618 153.254 13.114-12.799" stroke-width=".037"/><path d="m861.157 160.496 14.721-12.709" stroke-width=".061"/><path d="m884.999 171.823 16.42-12.439" stroke-width=".085"/><path d="m908.869 187.97 18.162-11.987" stroke-width=".147"/><path d="m932.228 209.618 19.935-11.282" stroke-width=".22"/><path d="m954.506 237.499 21.707-10.32" stroke-width=".354"/><path d="m974.924 272.231 23.465-8.998" stroke-width=".574"/><path d="m992.693 314.385 25.137-7.346" stroke-width=".769"/><path d="m1006.75 364.138 26.65-5.288" stroke-width=".806"/><path d="m1016.15 421.525 27.94-2.854" stroke-width=".842"/><path d="m1019.73 485.986 28.92-.15" stroke-width=".879"/><path d="m1016.52 556.369 29.52 2.794" stroke-width=".916"/><path d="m1005.67 630.82 29.72 5.858" stroke-width=".94"/><path d="m986.761 706.982 29.469 8.938" stroke-width=".965"/><path d="m959.929 782.814 28.843 11.898" stroke-width=".977"/><path d="m925.663 856.125 27.836 14.647" stroke-width=".989"/><path d="m884.711 924.643 26.575 17.08M838.175 986.835 863.262 1006M787.172 1041.65l23.495 20.93" stroke-width="1.001"/><path d="m732.822 1088.64 21.858 22.32" stroke-width=".989"/><path d="m715.47 155.522 5.273-11.583M735.917 147.98l6.43-11.928M757.217 142.048l7.661-12.258M779.393 137.977l8.983-12.544M802.343 136.083l10.41-12.784" stroke-width=".012"/><path d="m826.141 136.746 11.912-12.949" stroke-width=".024"/><path d="m850.734 140.456 13.475-13.009" stroke-width=".037"/><path d="m875.881 147.786 15.127-12.964" stroke-width=".061"/><path d="m901.419 159.383 16.855-12.769" stroke-width=".098"/><path d="m927.031 175.984 18.658-12.363" stroke-width=".159"/><path d="m952.161 198.337 20.491-11.733" stroke-width=".256"/><path d="m976.214 227.18 22.339-10.801" stroke-width=".415"/><path d="m998.389 263.233 24.171-9.57" stroke-width=".659"/><path d="m1017.83 307.038 25.93-7.932" stroke-width=".781"/><path d="m1033.41 358.853 27.55-5.919" stroke-width=".818"/><path d="m1044.09 418.671 28.93-3.516" stroke-width=".867"/><path d="m1048.65 485.836 30-.781" stroke-width=".903"/><path d="m1046.04 559.161 30.67 2.178" stroke-width=".928"/><path d="m1035.39 636.678 30.9 5.303" stroke-width=".952"/><path d="m1016.24 715.921 30.69 8.458" stroke-width=".977"/><path d="m988.775 794.713 30.065 11.553" stroke-width="1.001"/><path d="m953.499 870.772 29.068 14.422M911.286 941.723l27.746 16.99M863.262 1006l26.199 19.23M810.667 1062.58l24.517 21.1" stroke-width="1.013"/><path d="m754.678 1110.96 22.774 22.61" stroke-width="1.001"/><path d="m720.744 143.94 5.468-11.627M742.346 136.054l6.595-11.988M764.881 129.79l7.827-12.319M788.373 125.434l9.164-12.634M812.756 123.299l10.59-12.919" stroke-width=".012"/><path d="m838.053 123.795 12.093-13.115" stroke-width=".024"/><path d="m864.207 127.446 13.671-13.25" stroke-width=".049"/><path d="m891.007 134.822 15.338-13.265" stroke-width=".073"/><path d="m918.274 146.615 17.11-13.129" stroke-width=".11"/><path d="m945.687 163.62 18.943-12.829" stroke-width=".171"/><path d="m972.656 186.603 20.836-12.288" stroke-width=".281"/><path d="m998.551 216.378 22.759-11.462" stroke-width=".464"/><path d="m1022.56 253.665 24.69-10.275" stroke-width=".745"/><path d="m1043.76 299.106 26.55-8.728" stroke-width=".794"/><path d="m1060.95 352.932 28.29-6.775" stroke-width=".83"/><path d="m1073.02 415.155 29.8-4.417" stroke-width=".879"/><path d="m1078.65 485.055 30.98-1.682" stroke-width=".916"/><path d="m1076.71 561.341 31.76 1.307" stroke-width=".952"/><path d="m1066.29 641.98 32.09 4.506" stroke-width=".977"/><path d="m1046.93 724.378 31.96 7.796" stroke-width="1.001"/><path d="m1018.83 806.266 31.37 11.027" stroke-width="1.026"/><path d="m982.569 885.193 30.341 14.061M939.035 958.713l28.993 16.81M889.46 1025.23l27.401 19.21M835.183 1083.68l25.628 21.24" stroke-width="1.038"/><path d="m777.453 1133.57 23.765 22.91" stroke-width="1.026"/><path d="m726.213 132.312 5.603-11.642M748.939 124.065l6.745-12.003M772.705 117.471l7.962-12.378M797.539 112.8l9.269-12.739M823.345 110.38l10.681-13.04" stroke-width=".012"/><path d="m850.147 110.682 12.168-13.31" stroke-width=".024"/><path d="m877.878 114.196 13.76-13.505" stroke-width=".049"/><path d="m906.348 121.558 15.488-13.596" stroke-width=".073"/><path d="m935.383 133.485 17.261-13.55" stroke-width=".11"/><path d="m964.63 150.79 19.139-13.325" stroke-width=".183"/><path d="m993.489 174.316 21.121-12.875" stroke-width=".317"/><path d="m1021.31 204.916 23.14-12.138" stroke-width=".525"/><path d="m1047.26 243.389 25.16-11.087" stroke-width=".769"/><path d="m1070.31 290.378 27.16-9.629" stroke-width=".806"/><path d="m1089.24 346.157 29.03-7.721" stroke-width=".855"/><path d="m1102.82 410.738 30.68-5.378" stroke-width=".891"/><path d="m1109.63 483.371 31.99-2.659" stroke-width=".94"/><path d="m1108.47 562.648 32.9.391" stroke-width=".977"/><path d="m1098.38 646.488 33.36 3.695" stroke-width="1.001"/><path d="m1078.89 732.176 33.29 7.105" stroke-width="1.038"/><path d="m1050.2 817.292 32.75 10.485M1012.92 899.255l31.74 13.7" stroke-width="1.05"/><path d="m968.029 975.523 30.36 16.66M916.862 1044.45l28.678 19.27" stroke-width="1.062"/><path d="m860.81 1104.92 26.8 21.49" stroke-width="1.05"/><path d="m801.22 1156.48 24.832 23.26" stroke-width="1.038"/><path d="m731.815 120.671 5.649-11.627M755.686 112.062l6.775-12.018M780.668 105.092l7.992-12.409M806.805 100.06l9.284-12.784M834.025 97.34l10.651-13.144" stroke-width=".012"/><path d="m862.312 97.37 12.153-13.49" stroke-width=".024"/><path d="m891.638 100.69 13.76-13.745" stroke-width=".049"/><path d="m921.834 107.962 15.459-13.926" stroke-width=".073"/><path d="m952.646 119.934 17.276-13.985" stroke-width=".122"/><path d="m983.771 137.466 19.199-13.881" stroke-width=".208"/><path d="m1014.61 161.441 21.2-13.565" stroke-width=".354"/><path d="m1044.45 192.777 23.3-12.964" stroke-width=".586"/><path d="m1072.42 232.302 25.42-12.018" stroke-width=".769"/><path d="m1097.47 280.75 27.54-10.681" stroke-width=".818"/><path d="m1118.26 338.435 29.58-8.893" stroke-width=".867"/><path d="m1133.5 405.36 31.38-6.64" stroke-width=".916"/><path d="m1141.62 480.712 32.89-3.951" stroke-width=".952"/><path d="m1141.37 563.039 33.95-.872" stroke-width="1.001"/><path d="m1131.74 650.182 34.56 2.508" stroke-width="1.026"/><path d="m1112.18 739.279 34.65 6.07" stroke-width="1.05"/><path d="m1082.95 827.778 34.16 9.674" stroke-width="1.074"/><path d="m1044.66 912.955 33.2 13.13M998.386 992.184l31.784 16.326M945.539 1063.72l30.045 19.18" stroke-width="1.087"/><path d="m887.612 1126.41 28.077 21.64" stroke-width="1.074"/><path d="m826.052 1179.74 25.959 23.67" stroke-width="1.062"/><path d="m737.461 109.044 5.559-11.552M762.463 100.045l6.655-11.973M788.657 92.684l7.842-12.394M816.093 87.275l9.104-12.815" stroke-width=".012"/><path d="m844.679 84.196 10.47-13.234M874.466 83.88l11.943-13.61" stroke-width=".024"/><path d="m905.398 86.946 13.52-13.97" stroke-width=".049"/><path d="m937.291 94.035 15.218-14.256" stroke-width=".085"/><path d="m969.919 105.949 17.051-14.421" stroke-width=".134"/><path d="m1002.97 123.585 18.99-14.467" stroke-width=".22"/><path d="m1035.81 147.876 21.06-14.287" stroke-width=".391"/><path d="m1067.75 179.813 23.24-13.866" stroke-width=".672"/><path d="m1097.83 220.284 25.5-13.099" stroke-width=".781"/><path d="m1125.01 270.069 27.77-11.897" stroke-width=".83"/><path d="m1147.85 329.542 29.94-10.23" stroke-width=".879"/><path d="m1164.88 398.721 31.97-8.082" stroke-width=".928"/><path d="m1174.51 476.763 33.68-5.409" stroke-width=".977"/><path d="m1175.32 562.167 34.98-2.314" stroke-width="1.013"/><path d="m1166.29 652.69 35.77 1.157" stroke-width="1.05"/><path d="m1146.83 745.35 35.99 4.927" stroke-width="1.074"/><path d="m1117.11 837.452 35.67 8.758" stroke-width="1.099"/><path d="m1077.86 926.085 34.73 12.513M1030.17 1008.51l33.34 16.06M975.585 1082.9l31.535 19.25" stroke-width="1.111"/><path d="m915.688 1148.05 29.429 21.98" stroke-width="1.099"/><path d="m852.01 1203.41 27.161 24.2" stroke-width="1.087"/><path d="m743.022 97.492 5.438-11.477M769.115 88.072l6.52-11.898M796.503 80.292l7.676-12.349M825.195 74.462l8.893-12.83" stroke-width=".012"/><path d="m855.146 70.962 10.245-13.295M886.41 70.27l11.688-13.746" stroke-width=".024"/><path d="m918.919 72.973 13.25-14.18" stroke-width=".049"/><path d="m952.509 79.78 14.947-14.557" stroke-width=".085"/><path d="m986.968 91.527 16.782-14.873" stroke-width=".147"/><path d="m1021.95 109.119 18.77-15.023" stroke-width=".244"/><path d="m1056.87 133.59 20.88-15.023" stroke-width=".427"/><path d="m1090.98 165.948 23.12-14.737" stroke-width=".745"/><path d="m1123.33 207.186 25.48-14.136" stroke-width=".794"/><path d="m1152.77 258.171 27.9-13.13" stroke-width=".842"/><path d="m1177.79 319.312 30.27-11.612" stroke-width=".903"/><path d="m1196.85 390.638 32.49-9.554" stroke-width=".952"/><path d="m1208.19 471.353 34.43-6.97" stroke-width="1.001"/><path d="m1210.29 559.854 35.98-3.846" stroke-width="1.038"/><path d="m1202.06 653.848 37.02-.225" stroke-width="1.074"/><path d="m1182.82 750.276 37.46 3.741" stroke-width="1.111"/><path d="m1152.77 846.21 37.24 7.872" stroke-width="1.123"/><path d="m1112.59 938.599 36.41 11.958M1063.51 1024.57l35 15.87M1007.11 1102.15l33.13 19.41" stroke-width="1.135"/><path d="m945.12 1170.03 30.901 22.45" stroke-width="1.123"/><path d="m879.171 1227.61 28.453 24.93" stroke-width="1.111"/><path d="m748.458 86.013 5.212-11.327M775.633 76.174l6.264-11.792M804.176 67.941l7.361-12.273M834.089 61.632l8.593-12.784" stroke-width=".012"/><path d="m865.393 57.667 9.885-13.31M898.095 56.525l11.297-13.836" stroke-width=".024"/><path d="m932.167 58.793 12.844-14.362" stroke-width=".049"/><path d="M967.458 65.224 982 50.367" stroke-width=".085"/><path d="m1003.75 76.655 16.36-15.263" stroke-width=".147"/><path d="m1040.72 94.096 18.36-15.593" stroke-width=".256"/><path d="m1077.75 118.568 20.52-15.744" stroke-width=".476"/><path d="m1114.11 151.211 22.89-15.654" stroke-width=".757"/><path d="m1148.81 193.049 25.35-15.233" stroke-width=".806"/><path d="m1180.67 245.041 27.92-14.407" stroke-width=".867"/><path d="m1208.06 307.699 30.51-13.07" stroke-width=".916"/><path d="m1229.34 381.085 32.96-11.147" stroke-width=".965"/><path d="m1242.62 464.383 35.17-8.608" stroke-width="1.013"/><path d="m1246.27 556.007 37.02-5.423" stroke-width="1.062"/><path d="m1239.07 653.624 38.31-1.698" stroke-width="1.099"/><path d="m1220.28 754.018 39 2.509" stroke-width="1.135"/><path d="m1190.01 854.082 38.97 6.971" stroke-width="1.148"/><path d="m1149 950.557 38.24 11.477M1098.51 1040.43l36.82 15.82M1040.24 1121.56l34.85 19.72" stroke-width="1.172"/><path d="m976.019 1192.48 32.461 23.09" stroke-width="1.148"/><path d="m907.623 1252.54 29.804 25.82" stroke-width="1.135"/><path d="m753.672 74.687 4.867-11.132M781.897 64.382l5.859-11.612M811.537 55.668l6.955-12.138M842.683 48.848l8.112-12.679" stroke-width=".012"/><path d="m875.279 44.356 9.404-13.265M909.392 42.69l10.771-13.881" stroke-width=".024"/><path d="m945.013 44.432 12.273-14.482" stroke-width=".049"/><path d="m981.998 50.365 13.926-15.083" stroke-width=".085"/><path d="m1020.11 61.392 15.76-15.654" stroke-width=".159"/><path d="m1059.08 78.501 17.77-16.119" stroke-width=".281"/><path d="m1098.27 102.825 20.01-16.45" stroke-width=".513"/><path d="m1137 135.558 22.41-16.57" stroke-width=".769"/><path d="m1174.17 177.815 25.04-16.359" stroke-width=".818"/><path d="m1208.59 230.635 27.77-15.744" stroke-width=".879"/><path d="m1238.56 294.629 30.56-14.587" stroke-width=".928"/><path d="m1262.3 369.939 33.31-12.814" stroke-width=".989"/><path d="m1277.79 455.775 35.86-10.336" stroke-width="1.038"/><path d="m1283.29 550.583 38.01-7.15" stroke-width="1.087"/><path d="m1277.38 651.925 39.66-3.26" stroke-width="1.135"/><path d="m1259.28 756.527 40.62 1.247" stroke-width="1.16"/><path d="m1228.98 861.053 40.83 6.129" stroke-width="1.184"/><path d="m1187.24 962.033 40.18 11.071" stroke-width="1.197"/><path d="m1135.33 1056.25 38.79 15.87" stroke-width="1.209"/><path d="m1075.09 1141.28 36.73 20.23" stroke-width="1.197"/><path d="m1008.48 1215.56 34.15 23.95" stroke-width="1.184"/><path d="m937.425 1278.36 31.262 26.92" stroke-width="1.16"/><path d="m787.759 52.77 5.423-11.403M818.492 43.532l6.46-11.943M850.794 36.17l7.556-12.528" stroke-width=".012"/><path d="m884.682 31.092 8.758-13.174M920.166 28.808l10.095-13.851" stroke-width=".024"/><path d="m957.288 29.951 11.553-14.557" stroke-width=".049"/><path d="m995.923 35.284 13.177-15.278" stroke-width=".098"/><path d="m1035.87 45.739 15-15.97" stroke-width=".171"/><path d="m1076.85 62.385 17.02-16.615" stroke-width=".305"/><path d="m1118.28 86.374 19.29-17.14" stroke-width=".549"/><path d="m1159.41 118.988 21.78-17.456" stroke-width=".781"/><path d="m1199.21 161.457 24.51-17.501" stroke-width=".83"/><path d="m1236.36 214.892 27.44-17.111" stroke-width=".891"/><path d="m1269.12 280.044 30.51-16.179" stroke-width=".952"/><path d="m1295.6 357.124 33.55-14.572" stroke-width="1.001"/><path d="m1313.65 445.44 36.44-12.168" stroke-width="1.062"/><path d="m1321.3 543.433 39.01-8.923" stroke-width="1.111"/><path d="m1317.05 648.664 41.07-4.822" stroke-width="1.16"/><path d="m1299.9 757.774 42.39.03" stroke-width="1.197"/><path d="m1269.81 867.182 42.86 5.363" stroke-width="1.221"/><path d="m1227.42 973.105 42.36 10.846M1174.12 1072.12l40.95 16.14M1111.82 1161.51l38.74 20.96" stroke-width="1.233"/><path d="m1042.63 1239.51 35.98 25.04" stroke-width="1.209"/><path d="m968.69 1305.28 32.81 28.21" stroke-width="1.197"/><path d="m793.18 41.366 4.852-11.101M824.953 31.588l5.829-11.688M858.347 23.64l6.895-12.333" stroke-width=".012"/><path d="m893.439 17.916 8.052-13.009M930.26 14.957l9.344-13.76" stroke-width=".024"/><path d="M968.836 15.393 979.592.822" stroke-width=".061"/><path d="m1009.1 20.004 12.34-15.383" stroke-width=".098"/><path d="m1050.88 29.771 14.15-16.24" stroke-width=".183"/><path d="m1093.87 45.77 16.19-17.036" stroke-width=".317"/><path d="m1137.57 69.234 18.48-17.757" stroke-width=".598"/><path d="m1181.2 101.532 21.09-18.312" stroke-width=".781"/><path d="m1223.72 143.954 23.98-18.552" stroke-width=".842"/><path d="m1263.81 197.781 27.11-18.403" stroke-width=".903"/><path d="m1299.63 263.864 30.44-17.682" stroke-width=".965"/><path d="m1329.15 342.551 33.83-16.239" stroke-width="1.026"/><path d="m1350.09 433.271 37.14-13.91" stroke-width="1.087"/><path d="m1360.31 534.51 40.15-10.591" stroke-width="1.135"/><path d="m1358.11 643.842 42.64-6.279" stroke-width="1.197"/><path d="m1342.29 757.804 44.37-1.051" stroke-width="1.233"/><path d="m1312.67 872.544 45.08 4.762" stroke-width="1.245"/><path d="m1269.78 983.95 44.74 10.802M1215.07 1088.27l43.34 16.66M1150.57 1182.47l40.99 21.98" stroke-width="1.27"/><path d="m1078.61 1264.55 37.95 26.37" stroke-width="1.245"/><path d="m1001.5 1333.49 34.5 29.63" stroke-width="1.221"/></g></svg>