<svg width="21" height="22" fill="none" xmlns="http://www.w3.org/2000/svg"><path d="M10.353 8.026s2.153 2.858 2.153 4.097c0 1.22-.988 2.219-2.192 2.219-1.206 0-2.193-1-2.193-2.219 0-1.239 2.232-4.097 2.232-4.097Z" fill="#3A3A3A"/><path d="M10.313.93C4.723.93.18 5.527.18 11.184c0 5.657 4.543 10.254 10.133 10.254 5.59 0 10.133-4.597 10.133-10.254C20.446 5.527 15.904.93 10.313.93Zm3.417 1.879a9.064 9.064 0 0 1 4.86 4.917l-2.054.86c-.692-1.68-1.996-3.019-3.655-3.698l.85-2.08Zm-6.834 0 .85 2.079A6.74 6.74 0 0 0 4.09 8.585l-2.054-.86a8.937 8.937 0 0 1 4.86-4.916Zm0 16.75a9.064 9.064 0 0 1-4.859-4.917l2.054-.86c.691 1.68 1.995 3.019 3.655 3.698l-.85 2.079Zm-2.133-8.375c0-3.098 2.489-5.617 5.55-5.617 3.062 0 5.55 2.519 5.55 5.617s-2.488 5.617-5.55 5.617c-3.061 0-5.55-2.519-5.55-5.617Zm8.967 8.375-.849-2.079a6.74 6.74 0 0 0 3.655-3.698l2.054.86a8.937 8.937 0 0 1-4.86 4.917Z" fill="#3A3A3A"/></svg>