<svg width="136" height="25" fill="none" xmlns="http://www.w3.org/2000/svg"><path d="M11.283 4.107c.23-.467.345-.7.502-.775a.5.5 0 0 1 .43 0c.157.075.272.308.502.775l2.187 4.43c.068.138.102.207.152.26a.502.502 0 0 0 .155.114c.066.03.143.042.295.064l4.891.715c.515.075.773.113.892.238a.5.5 0 0 1 .133.41c-.023.171-.21.353-.582.716L17.3 14.5c-.11.108-.165.162-.2.225a.5.5 0 0 0-.06.184c-.009.072.004.148.03.3l.835 4.867c.088.514.132.77.05.922a.5.5 0 0 1-.349.253c-.17.032-.4-.09-.862-.332l-4.373-2.3c-.136-.07-.204-.107-.276-.12a.502.502 0 0 0-.192 0c-.072.013-.14.05-.276.12l-4.373 2.3c-.461.243-.692.364-.862.332a.5.5 0 0 1-.348-.253c-.083-.152-.039-.409.05-.922l.834-4.867c.026-.152.039-.228.03-.3a.5.5 0 0 0-.06-.184c-.035-.063-.09-.117-.2-.225L3.16 11.054c-.373-.363-.56-.545-.582-.716a.5.5 0 0 1 .132-.41c.12-.125.377-.163.892-.238l4.891-.715c.152-.022.228-.034.295-.064a.5.5 0 0 0 .155-.113c.05-.054.084-.123.152-.26l2.187-4.43ZM39.283 4.107c.23-.467.345-.7.502-.775a.5.5 0 0 1 .43 0c.157.075.272.308.502.775l2.187 4.43c.068.138.102.207.152.26a.502.502 0 0 0 .155.114c.067.03.143.042.295.064l4.891.715c.515.075.773.113.892.238a.5.5 0 0 1 .133.41c-.023.171-.21.353-.582.716L45.3 14.5c-.11.108-.165.162-.2.225a.5.5 0 0 0-.06.184c-.009.072.004.148.03.3l.835 4.867c.088.514.132.77.05.922a.5.5 0 0 1-.349.253c-.17.032-.4-.09-.862-.332l-4.373-2.3c-.136-.07-.204-.107-.276-.12a.502.502 0 0 0-.192 0c-.072.013-.14.05-.276.12l-4.373 2.3c-.461.243-.692.364-.862.332a.5.5 0 0 1-.348-.253c-.083-.152-.039-.409.05-.922l.834-4.867c.026-.152.039-.228.03-.3a.5.5 0 0 0-.06-.184c-.035-.063-.09-.117-.2-.225l-3.538-3.446c-.373-.363-.56-.545-.583-.716a.5.5 0 0 1 .133-.41c.12-.125.377-.163.892-.238l4.891-.715c.152-.022.228-.034.295-.064a.502.502 0 0 0 .155-.113c.05-.054.084-.123.152-.26l2.187-4.43ZM67.283 4.107c.23-.467.345-.7.502-.775a.5.5 0 0 1 .43 0c.157.075.272.308.502.775l2.187 4.43c.068.138.102.207.152.26a.502.502 0 0 0 .155.114c.067.03.143.042.295.064l4.891.715c.515.075.773.113.892.238a.5.5 0 0 1 .132.41c-.022.171-.209.353-.582.716L73.302 14.5c-.11.108-.165.162-.2.225a.5.5 0 0 0-.06.184c-.009.072.004.148.03.3l.835 4.867c.088.514.132.77.05.922a.5.5 0 0 1-.349.253c-.17.032-.4-.09-.862-.332l-4.373-2.3c-.136-.07-.204-.107-.276-.12a.502.502 0 0 0-.192 0c-.072.013-.14.05-.276.12l-4.373 2.3c-.461.243-.692.364-.862.332a.5.5 0 0 1-.348-.253c-.083-.152-.039-.409.05-.922l.834-4.867c.026-.152.039-.228.03-.3a.5.5 0 0 0-.06-.184c-.035-.063-.09-.117-.2-.225l-3.538-3.446c-.373-.363-.56-.545-.583-.716a.5.5 0 0 1 .133-.41c.12-.125.377-.163.892-.238l4.891-.715c.152-.022.228-.034.295-.064a.502.502 0 0 0 .155-.113c.05-.054.084-.123.152-.26l2.187-4.43ZM95.283 4.107c.23-.467.345-.7.502-.775a.5.5 0 0 1 .43 0c.157.075.272.308.502.775l2.187 4.43c.068.138.102.207.152.26a.502.502 0 0 0 .155.114c.067.03.143.042.295.064l4.891.715c.515.075.773.113.892.238.103.11.152.26.132.41-.022.171-.209.353-.582.716l-3.538 3.446c-.11.108-.165.162-.201.225a.513.513 0 0 0-.059.184c-.009.072.004.148.03.3l.835 4.867c.088.514.132.77.049.922a.5.5 0 0 1-.348.253c-.17.032-.401-.09-.862-.332l-4.373-2.3c-.136-.07-.204-.107-.276-.12a.502.502 0 0 0-.192 0c-.072.013-.14.05-.276.12l-4.373 2.3c-.461.243-.692.364-.862.332a.5.5 0 0 1-.348-.253c-.083-.152-.039-.409.05-.922l.834-4.867c.026-.152.039-.228.03-.3a.5.5 0 0 0-.06-.184c-.035-.063-.09-.117-.2-.225l-3.538-3.446c-.373-.363-.56-.545-.582-.716a.5.5 0 0 1 .132-.41c.12-.125.377-.163.892-.238l4.891-.715c.152-.022.228-.034.295-.064a.502.502 0 0 0 .155-.113c.05-.054.084-.123.152-.26l2.187-4.43ZM123.283 4.107c.23-.467.345-.7.502-.775a.5.5 0 0 1 .43 0c.157.075.272.308.502.775l2.187 4.43c.068.138.102.207.152.26a.505.505 0 0 0 .155.114c.067.03.143.042.295.064l4.891.715c.515.075.773.113.892.238.103.11.152.26.132.41-.022.171-.209.353-.582.716l-3.538 3.446c-.11.108-.165.162-.201.225a.513.513 0 0 0-.059.184c-.009.072.004.148.03.3l.835 4.867c.088.514.132.77.049.922a.5.5 0 0 1-.348.253c-.17.032-.401-.09-.862-.332l-4.373-2.3c-.136-.07-.204-.107-.276-.12a.5.5 0 0 0-.192 0c-.072.013-.14.05-.276.12l-4.373 2.3c-.461.243-.692.364-.862.332a.5.5 0 0 1-.348-.253c-.083-.152-.039-.409.049-.922l.835-4.867c.026-.152.039-.228.03-.3a.513.513 0 0 0-.059-.184c-.036-.063-.091-.117-.201-.225l-3.538-3.446c-.373-.363-.56-.545-.582-.716-.02-.15.029-.3.132-.41.119-.125.377-.163.892-.238l4.891-.715c.152-.022.228-.034.295-.064a.505.505 0 0 0 .155-.113c.05-.054.084-.123.152-.26l2.187-4.43Z" fill="#FFB200"/></svg>